<?xml version="1.0" encoding="UTF-8"?>
<svg id="Capa_1" xmlns="http://www.w3.org/2000/svg" version="1.1" viewBox="0 0 850 850">
  <!-- Generator: Adobe Illustrator 29.0.0, SVG Export Plug-In . SVG Version: 2.1.0 Build 186)  -->
  <defs>
    <style>
      .st0 {
        fill: #e5d2c8;
      }

      .st1 {
        fill: #664c42;
      }

      .st2 {
        fill: #e2ccc1;
      }

      .st3 {
        fill: #8f695f;
      }
    </style>
  </defs>
  <polygon class="st1" points="185.9 794.4 251 832 637.2 794.4 699.5 724.4 765.2 544.3 691.4 279.2 635.9 163.2 478 96.8 353.4 18 259.7 177.1 127.5 278.6 84.8 492.4 119.9 664.7 185.9 794.4"/>
  <polygon class="st3" points="148.6 557.2 218.9 684.2 251 832 637.2 794.4 699.5 724.4 765.2 544.2 692 281.1 635.9 163.1 479.1 97.4 353.4 18 296.2 177.7 183.6 294.7 148.6 557.2"/>
  <path class="st2" d="M482.3,497c17.3,3.2,47.9-86.5-6.1-86.5s-78.5,78-74.4,115.7c2.1,18.9,20.4,98.7,86,94.8s113.3-60.7,118.9-131.1c4.9-60.9-19.8-183.4-137.9-187.3s-152.1,158.4-150.2,233.3,49.1,190,158,174.5c108.9-15.5,187.6-124.9,176.4-250.8s-62.7-245.5-203.7-245.5-189.6,181.8-195.4,267.8,36.4,170.3,63.2,153.1c13.6-8.8-58.8-27.2-31.6-190,13.9-83,87.5-207.3,171.3-207.3,143.3,2.3,167.4,144.3,174.2,221.9,5.7,64.7-30.3,216.9-158.5,221.2-125.2,4.1-136.1-135.1-116.7-213.9s59.8-133.2,110.9-133.2,132,33.9,112.6,158.5c-8.4,54.1-39.2,100.6-95.6,88.9s-60.3-139-18.5-137c25,1.2-15.7,47,16.8,53Z"/>
  <path class="st0" d="M478.4,492c1,.5,2,.8,3,1,.4,0,.8,0,1.2,0,.4,0,0-.3.5-.3-1.6-.3-3.1-.7-4.6-1.2-.8-.3-1-.3-1-.2s1,.9.9.7Z"/>
  <path class="st0" d="M435.5,488.8v-2.2c-.3,5.9-.2,11.9.4,17.8-.4-5.2-.6-10.4-.4-15.6Z"/>
  <path class="st0" d="M483.3,583.2c-3.7-1.1-7.3-2.5-10.7-4.3-2.2-1.2-4.4-2.6-6.5-4.1-2.2-1.7-4.3-3.6-6.3-5.6-4.1-4.3-7.6-9-10.5-14.2-1.4-2.5-2.7-5.1-3.8-7.7-1.1-2.6-2.1-5-2.8-7.5-.3-1.1-.6-2.1-.8-3.2-1.2-2.8-2.3-5.6-3.3-8.5.7,3,1.6,6,2.6,9.1s2.2,6.2,3.6,9.3c1.4,3.1,2.9,6.1,4.6,9.1,1.7,2.9,3.6,5.7,5.7,8.4,3.8,5.1,8.5,9.5,13.9,13,4.4,2.9,9.3,5,14.5,6.2Z"/>
  <path class="st0" d="M542.7,573.7c-.8.5-.6.2,0-.2l1.3-1.2-.3.3c-.3.3-.9.8-1.9,1.4s-2.3,1.7-4.2,2.9c-2.4,1.6-4.9,2.9-7.6,4.2,1.3-.5,1.7-.7,2.4-1.1l1.9-1,1.1-.6,1.2-.7c.8-.5,1.8-1.1,2.8-1.7l3.3-2.3Z"/>
  <path class="st0" d="M532.5,580c-1.4.8-2.3,1.1-2.9,1.4-.3.1-.5.2-.8.4,0,0,1.1-.4,2.3-1,2.3-1.1,5.1-2.6,1.4-.9Z"/>
  <path class="st0" d="M570,538.7c-2.2,4.9-4.7,9.6-7.6,14.1.5-.7,1.4-1.9,2.4-3.4s2-3.1,2.8-4.5c1.6-2.9,2.7-4.9,1.6-2.5,1.8-3.7,3-6.3,3.7-8,.4-.8.7-1.7.9-2.5-.4.6-.7,1.2-1,1.9-.7,1.2-1.5,3-2.7,5Z"/>
  <path class="st0" d="M575.1,524.5c-.8,2.6-1.8,5.1-2.8,7.7.4-.9.8-1.8,1.2-2.7.2-.6.5-1.3.8-2.1s.5-1.8.9-2.9Z"/>
  <path class="st0" d="M564.7,547.9c2.9-5,5.4-10.3,7.6-15.7-.5,1-.9,1.5-1.3,2.5-.2.5-.4,1-.8,1.8s-.7,1.7-1.1,3c.3-1.4-.7,1.9-4.4,8.4Z"/>
  <path class="st0" d="M559,556.1c-2.4,3.1-5,6-7.8,8.7-.8.7-1,.8-.3,0s2.2-2.5,4.7-5.6c-3.5,4.3-7.3,8.3-11.5,11.8l-1.7,1.4c-.5.4-.8.7-1.1.9-.6.5-.7.6-.4.5.7-.4,1.3-.8,1.9-1.2l1.8-1.3c.7-.5,1.4-1.1,2.2-1.8,4.6-3.9,8.7-8.4,12.2-13.2Z"/>
  <path class="st0" d="M489.2,583.1c-1.9-.4-3.8-.8-5.7-1.2-1.9-.5-3.8-1.1-5.6-1.8-3.2-1.1-6.3-2.6-9.2-4.4l2.1,1.3c.8.5,1.8,1,2.9,1.6,2.3,1.1,4.6,2.1,7,2.8,1.2.4,2.4.6,3.4.9l2.8.5c1.6.3,2.5.4,2.4.3Z"/>
  <path class="st0" d="M586.8,442.9c-.3-1-.3,5.3-.5,6.5l.2,5.8c0,1.9.2,3.9.1,5.8.1-1.5.1-3.3.1-5.2s0-3.9,0-5.8c-.1-2.4-.1-4.8,0-7.1Z"/>
  <path class="st0" d="M586.3,449.4l-.7-8.7c-.3-2.9-.8-5.8-1.2-8.6.2,1.9.4,3.7.6,5.2,0,.8.2,1.5.3,2.2s0,1.3.2,1.9c.2,2.4.3,4.2.4,5.5.2,2.5.3,3,.5,2.5Z"/>
  <path class="st0" d="M574.9,521.5c-2.7,9.1-6.5,17.9-11.1,26.2,5.6-9.9,9.8-20.5,12.7-31.5-.5,1.7-1.1,3.5-1.6,5.2Z"/>
  <path class="st0" d="M566.7,379.3c1.9,2.8,3.9,5.5,5.6,8.4-3.1-5.2-6.6-10.1-10.4-14.7,1.6,2.1,3.3,4.1,4.8,6.2Z"/>
  <path class="st0" d="M534.6,348.1c3.2,1.8,1.2.3-.8-1.2s-4.2-2.8-.6-.9c-2.7-1.5-5.2-3-7.8-4.2-1.3-.6-2.6-1.2-3.8-1.8l-3.8-1.5c-1.2-.5-2.5-1-3.7-1.4l-3.6-1.2c-2.4-.7-4.7-1.4-7-2,1.2.3,2.4.7,3.6,1.1s2.4.8,3.7,1.2c2.4.9,5,1.8,7.5,3,5.7,2.5,11.2,5.5,16.3,8.9Z"/>
  <path class="st0" d="M488.1,330.9c2.4.4,4.9.7,7.5,1.3,1.3.3,2.6.5,3.9.8l4,1-3.8-1c-1.3-.3-2.6-.5-3.8-.8-2.6-.6-5.1-.9-7.7-1.3Z"/>
  <path class="st0" d="M577.4,403.3c-.4-1.3-.7-4-4.9-13,.5,1.1.8,2.2,1.2,3.3l1.1,3.3c.9,1.9,1.7,4.1,2.6,6.4Z"/>
  <path class="st0" d="M575,397.1v-.2c-.9-1.7-1.6-3.3-2.2-4.7s-1.4-2.7-2-3.8l-1.5-2.9c-.5-.8-.9-1.4-1.2-1.9.3.4.6,1,1,1.7s.9,1.6,1.5,2.7l2,3.9,2.5,5.3Z"/>
  <path class="st0" d="M578.1,404.9c-.2-.6-.4-1-.6-1.6.1.6.3,1.1.6,1.6Z"/>
  <path class="st0" d="M584.3,477.4c0-1.3.2-2.7.2-4.2s.2-3.1.2-4.6v-8c0-2-.2-3-.3-2.3s-.3,3.2-.7,8.3c0,3.6.3,2.5.5,2.4s.2.2.2,1.3,0,3.3-.2,7.1Z"/>
  <path class="st0" d="M579.9,413.3c.8,3,1.4,6,2.1,9,.5,3,1.1,6,1.5,9.1,0-.2,0-1.1,0-1.4s.3.1.7,2.6c-.2-1.6-.6-3.3-.9-4.9l-1-4.8c-.3-1.6-.8-3.2-1.2-4.8s-.8-3.2-1.3-4.8Z"/>
  <path class="st0" d="M576.9,404.7c.6,1.4,1.1,2.8,1.5,4.2l1.4,4.3-2-6.6c-.3-.7-.6-1.3-1-2Z"/>
  <path class="st0" d="M518.5,340.6c-8.3-3.3-16.8-6-25.5-7.8,10.4,2.3,20.6,5.8,30.2,10.5.7.3,1.4.5,2.1.6-.4-.3-.9-.6-1.4-.9-1.7-.9-3.5-1.8-5.3-2.5Z"/>
  <path class="st0" d="M551.4,362.6l-1.3-1.2c.8.8,1.4,1.4,1.3,1.2Z"/>
  <path class="st0" d="M403.7,360.7c.4-.4.7-.7,1.2-1.1,0-.1,0-.2.2-.3-.5.4-.9.9-1.3,1.4Z"/>
  <path class="st0" d="M524.7,344.2c1.8.9,3.3,1.8,4.8,2.6l2,1.2c.7.4,1.2.8,1.8,1.1l3.3,2c1,.6,2,1.3,2.9,1.9-2.4-1.8-5.1-3.4-7.8-5.1-2.8-1.6-5.6-3.2-8.7-4.7-.6-.2-.7-.2,1.6.9Z"/>
  <path class="st0" d="M460.7,329.7c1.1-.1,2.2-.1,3.3-.1h3.5c2.3.1,4.8.2,7.2.4-2-.3-5.1-.5-7.9-.6-2,0-4.1,0-6.1.2Z"/>
  <path class="st0" d="M548.2,359.4l.9.8c-1.8-1.9-1.7-1.6-.9-.8Z"/>
  <path class="st0" d="M548.2,359.4c-2.7-2.3-5.6-4.4-8.6-6.4l2.9,2.1c.9.7,1.8,1.5,2.7,2.1s1.7,1.4,2.5,2.1l2.3,2c-.7-.7-1.4-1.4-1.9-1.9Z"/>
  <path class="st0" d="M389.3,386.2c.5-1.3,1.2-2.6,2-3.8,1.2-2.1,3-4.8,5.2-7.8,5-7,10.9-13.4,17.5-18.9,3.2-2.9,5-4.7,5.8-5.6s.3-1-.9-.5c-2,1-4,2.1-5.8,3.4-1.2.9-2.5,1.9-4,3s-2.8,2.4-4.3,3.6c0,.3-.1.5-1.6,2.3-.7.9-1.9,2.2-3.5,4.2s-3.7,4.7-6.3,8.4c.5-.6,1.3-1.6,2.2-2.7s2.1-2.6,3.3-4,2.6-3,4-4.4l2.1-2.2c.7-.7,1.4-1.4,2.1-2,1.3-1.3,2.5-2.4,3.6-3.3s1.8-1.5,2.3-1.9c.9-.7.4,0-2.3,2.6-4.3,4.2-7,7.3-9.1,9.7s-3.4,3.9-4.4,5.2c-2.2,2.6-3.4,3.9-6.9,8.6,1.5-2,1.3-1.3.1.7l-2.3,3.9c-.9,1.5-1.9,3.3-2.9,5.1-3.9,7.1-7.4,15.1-5.8,13,3-6.2,6.3-12.3,9.9-18.2.4-.2-3.4,6.3-.2,1.5Z"/>
  <path class="st0" d="M432.8,338.5c1.1-.6,2.3-1.1,3.5-1.7l1.7-.8c.6-.2,1.2-.5,1.8-.7l-1.5.6c-.5.2-1,.4-1.4.6l-2.8,1.2c-1.8.8-3.6,1.7-5.4,2.6l-2.8,1.5c-1,.5-1.9,1.1-2.9,1.7s-2,1.2-3.1,2l-3.3,2.3c-3.2,2.7-6.3,5.5-9.1,8.6-.9.9-1.6,1.8-2.4,2.8,8.6-9.1,18.8-16.6,30.1-22-.8.4-1.6.8-2.3,1.2Z"/>
  <path class="st0" d="M473.6,330.4l-6.1.2c-1.2,0-2.4.2-3.6.3h-1.7c-.5.2-1.1.3-1.5.4-3.9.6-5.6,1,0,.8,1.4-.2,2.6-.2,3.8-.2s2.2-.1,3.2,0h4.9c2.7.1,4.3.1,5.7.2l4,.2,2.8.3c1.1.1,2.5.2,4.1.5-4.4-.8-7.5-1.1-9.7-1.3s-3.4-.3-4-.4c-1.1,0,.5-.1,2.4,0,1.4.1,2.8.2,4.2.2,0,0-.4-.1-1.7-.3s-3.3-.5-6.6-.7c6.5.3,12.9,1.1,19.2,2.4-6-1.3-12.1-2.2-18.3-2.7h.8c0,0,.1,0,.1,0,1.5.2,2,.3.3.1h-.8c-.5,0-1.1.1-1.6.1-1.3-.1-2.3-.1-3-.2h-1.5c-.6,0-.4-.1.3-.1h5.9c.1.1.3,0,.4,0h-.1c-3-.2-6-.2-9-.2l-4.6.2-4.5.5c-6,.9-12,2.5-17.6,4.7l2.8-1c1-.3,2-.6,3.1-1l1.7-.5,1.8-.4c1.2-.3,2.5-.6,3.8-.9s2.8-.5,4.3-.7l4.9-.5c1.7,0,3.5-.2,5.4-.2s3.8,0,5.9.1Z"/>
  <path class="st0" d="M582.5,447.9c0-1.1,0-1,0-1.1-.2-2.2-.3-3.1,0,1.1Z"/>
  <path class="st0" d="M581.6,433.6l.7,4.3c.4,2.8.7,5.7.7,8.6.2,7.2-.3,0-.5.4.3,2.5.4,6.8.6,8.6s.3,1,.3-6.8l-.2-2.5c0-1.8-.2-3.6-.2-5.4s-.3-3.7-.5-5.5c0-.9-.2-1.8-.2-2.7s-.2-1.8-.3-2.6c-.2-1.7-.5-3.3-.7-4.8-.3-3-.9-5.4-1.2-7s-.4-2.2-.2-1.6c.2,2.1.4,4,.8,6.6.1,1.3.2,2.8.4,4.5s.4,3.7.5,6Z"/>
  <path class="st0" d="M547,361.1c-7.4-6.5-15.7-11.9-24.6-16.1l3.3,1.8,3.2,2c2.2,1.3,4.1,2.8,6.2,4.2l-.4-.7c6.9,4.7,9.3,7,10.5,7.8s1,.4,1.9,1Z"/>
  <path class="st0" d="M401.2,363l2.2-3.4c-3.7,4.4-7.1,9-10.3,13.9,1.3-1.8,2.6-3.5,3.9-5.3s2.8-3.5,4.2-5.1Z"/>
  <path class="st0" d="M379.3,394.7l.2-1.5c-1.5,3-3,6-4.4,9.1,1.3-2.6,2.8-5.1,4.2-7.6Z"/>
  <path class="st0" d="M560.7,244.1c2.3,1.7,4.7,3.4,7,5.1-3.3-2.5-5.4-4-7-5.1Z"/>
  <path class="st0" d="M504.1,217.3h-1.6c2.8.5,4,.7,1.6,0Z"/>
  <path class="st0" d="M510.2,242.4c-1.5-.5-3-1.2-4.5-1.7l-4.5-1.4c-3-.9-5.8-1.9-8.2-2.3-4.8-1.1-8-1.7-7.3-1.2l3.7,1.3c2.2.4,4.2.7,6.2,1.1l5.4,1.4,4.9,1.3c1.5.5,2.9,1,4.3,1.5Z"/>
  <path class="st0" d="M263.2,569.1l.8,3.5c1.1,2.8,2.2,5.5,3.2,7.8-1.3-3.4-2.7-7.2-4-11.3Z"/>
  <path class="st0" d="M258.4,561.3c-1.2-5.4-2.2-10.8-3-16.3.5,3.7,1.3,9,3,16.3Z"/>
  <path class="st0" d="M647.8,557.2c-.4,1.7-.7,3.3-1.1,5l-1.3,4.8c.6-1.9,1.2-3.4,1.6-4.7s.7-2.3.9-3c.2-.8.4-1.6.5-2.4,0-.4-.6.9-.6.2Z"/>
  <path class="st0" d="M497.7,681.5c9-1.5,17.9-4,26.4-7.5-5.4,2-11,3.7-16.6,5.1-2.3.5-4.3,1-6,1.4-1.3.3-2.5.6-3.8,1Z"/>
  <path class="st0" d="M536.5,237.1c1.2.5,2.1,1.1,2.9,1.5l2,1c1,.5,1.5.7,1.5.6-2.3-1.3-4.1-2.2-5.3-2.8s-1.6-.6-1.2-.3Z"/>
  <path class="st0" d="M551.9,658.7c-1.6,1.1-3.2,2.1-4.9,3.1-7.2,4.8-14.9,8.9-23,12.2,4.9-1.8,9.6-4,14.2-6.5,4.8-2.6,9.4-5.6,13.7-8.9Z"/>
  <path class="st0" d="M535.7,611.6c-.8.4-1.8.8-2.6,1.2.9-.3,1.8-.7,2.6-1.2Z"/>
  <path class="st0" d="M485.3,414.4c-2-.5-4-.8-6-.9-.6,0-1.2,0-1.8,0s-1.2,0-1.9,0h-3.9c1.3.1,3,0,5.2,0,2.8,0,5.6.3,8.4,1Z"/>
  <path class="st0" d="M344.7,542.8c-.3-8.1-.1-1.3,0,0Z"/>
  <path class="st0" d="M348.4,503.6c-.1,1.1-.1,2.2,0,3.2,0-1.1,0-2.1,0-3.2Z"/>
  <path class="st0" d="M600.7,595.3l.3-.6c-1.2,2-1.1,1.7-.3.6Z"/>
  <path class="st0" d="M344.8,530.5c0,3-.1,6.5,0,10.4,0-1.7,0-4.8,0-10.4Z"/>
  <path class="st0" d="M344.5,532.2c0-2.8,0-5,.1-7.1,0-1-.2,0-.1,7.1Z"/>
  <path class="st0" d="M345.5,554.1c-.4-4.6-.6-9-.7-13.1,0,1.6,0,2.3,0,1.8,0,2.4.3,5.7.7,11.3Z"/>
  <path class="st0" d="M321.3,475.5c.1-.5.2-1.1.3-1.7.5-4,.7-5.2.6-4.5s-.5,3.1-.9,6.2Z"/>
  <path class="st0" d="M337.9,325.9c.2-.3.3-.5.5-.8l-.7,1,.2-.2Z"/>
  <path class="st0" d="M323.7,350.5c2.1-4.6,4.4-9.1,7-13.5,2.2-3.8,4.4-7.2,7-11-2.2,2.3-4.5,4.6-6.7,7-2.6,5.8-5.1,11.6-7.3,17.5Z"/>
  <path class="st0" d="M640.3,368.2c-1.8-6.6-3.6-13.1-5.8-19.6,4.7,11.4,7.6,21.7,9.2,26.6.8,2.5,1.1,3.6,1.1,3s-.6-3.1-1.7-7.8c-.8-1.2-1.4-2.5-1.7-3.9-.8-2.2-1.9-5.3-3.1-8.9-.6-1.8-1.3-3.7-2.1-5.8s-1.5-4.2-2.3-6.4l-2.7-6.7c-.5-1.1-.9-2.3-1.4-3.4s-1-2.3-1.5-3.4c-1-2.3-2-4.6-3-6.8s-2.1-4.4-3.2-6.5c-2-4.2-4.2-8.1-6.1-11.4-.9-1.7-1.9-3.2-2.7-4.5s-1.6-2.5-2.3-3.5c-1.3-2-2.3-3.2-2.7-3.3l-3.6-5.8-1.8-2.9-1.9-2.8c2.3,3.1,2.7,3.6,4.8,6.8l-2.4-3.9c-.8-1.2-1.6-2.2-2.2-3.2-1.4-2-2.6-3.6-3.7-5-2.3-2.8-4.2-4.7-6.2-6.8-.5-.5-1-1.1-1.6-1.6l-1.8-1.7c-1.2-1.2-2.6-2.5-4.2-4.1-.4-.4-.8-.8-1.2-1.3l-1.4-1.3-3.2-2.9c-1.1-1.1-2.3-2.3-3.7-3.5l-4.4-3.9c-9-7.7-15.8-12.5-9-8-1.8-1.3-3.7-2.5-5.5-3.7s-3.7-2.4-5.6-3.5l-5.8-3.2-2.9-1.6c-1-.5-2-.9-3-1.4-6.9-3.4-5-2.9,1.8.5-11.9-6.2-24.6-10.9-37.6-14.1h.3c-1.4-.3-3.2-.8-5.3-1l-6.8-1.1c-1.2-.2-2.3-.4-3.5-.5l-3.4-.4-5.7-.6-2.7-.5c-.3,0-.6,0-.8-.1.6,0,1.3,0,1.9.1,2.2.3,5.3.7,4.1.4-1.8-.2-3.7-.5-5.5-.6l-5.5-.3-5.5-.3c-.9,0-1.8,0-2.8,0h-2.8c-4.5-.4-2.2-.6,3.2-.6,2.7,0,6.1.3,9.8.5s7.7.8,11.5,1.4c-2.5-.6-4.7-1.1-6.7-1.5s-3.8-.5-5.5-.7-3.3-.3-5-.4-3.4-.2-5.3-.2h-10.3c-1.4,0-2.9,0-4.5.1-8.7.2-17.3,1-25.9,2.4,6.9-1.4,13.9-2.4,21-2.8-7.8-.2-15.6.5-23.2,2.1-10.2,2-20.2,5-29.9,9l3.5-1.2c.8-.3,1.7-.6,2.6-.9l3-1c4.4-1.4,8.8-2.6,13.3-3.5,2-.5,3.8-.7,5.2-.9.9-.2,1.8-.3,2.7-.2.7,0-1.2.6-7.1,2.2-9.4,2.2-18.5,5.6-27,10.2-.3-.5-12.1,4.9-24.9,14.6l.3-1.4c-1.8,1.3-3.2,2.5-4.5,3.5l-1.8,1.5-1.5,1.3c-1.8,1.6-3.1,2.9-4.2,4s-2,2.1-3.1,3.2-2.3,2.5-4,4.3c-6.8,6.7-10.7,11-13.5,13.9s-4.3,4.3-6,5.9c-2.4,3-3.9,5.1-4.8,6.4-.5.6-.9,1.2-1.2,1.9,0,0,1.6-1.9,3.1-3.6s2.9-3.3,2.6-2.7-2.5,3.5-7.5,11c-6.7,9.6-12.7,19.6-17.9,30-5.7,11.5-10.8,23.3-15.2,35.3-6.6,16.4.5-3.1-2,2.7-1.6,5-3.1,10-4.5,15-1.2,3.6-1.1,2.4-1,1.8-1.9,6.3-1.7,6.7-1.9,7.9s-.6,3.3-3.3,13.3c-.2,2.8-3.5,13-6.6,25.7s-6.2,28.2-7.1,41c-1,6.3-.2-3.1-.8-1.2-.9,8.8-1.3,15.1-1.5,20s-.3,8.6-.2,12,0,6.6.3,10.8.6,9.3,1.5,16.5c.5,8.2,1.4,16.4,2.6,24.5-.6-4.5-.7-6.5-.5-6.5s.6,1.7,1.3,4.6c1.4,5.9,4,16.4,7.1,26-1.4-6.2-2.3-11.6-3-15.2,2.4,10.4,5.6,20.6,9.3,30.6,1.2,3.7-.3.8-2.4-4,.8,2,1.6,4,2.2,5.5,1.9,5.4,2.2,6.8,1.6,5.9-1.5-2.5-2.8-5.2-3.9-7.9-1.1-3.8-2.2-7.5-3.1-11.2-2.9-7.4-5.2-14.6-5.3-12.8.6,2,1.7,5.9,3,10.2-.7-2-1.2-3.2-1-2.3.9,3.1,1.9,6.2,3.1,9.3.4,2.4.8,4.9,1.3,7.3l1,1.5c2.3,6.7,5,13.3,8.1,19.7,3.1,6.5,6.8,12.7,11,18.6,2.5,3,5.2,5.8,8.2,8.3,3.1,2.7,6.6,4.7,10.4,6,2,.6,4.2.9,6.3.8.5,0,1.1,0,1.6-.2.5,0,1.1-.2,1.6-.4,1.2-.3,2.3-.8,3.3-1.4.5-.3,1.1-.6,1.6-1,.3-.2.5-.3.7-.6.2-.2.4-.4.6-.7.4-.5.7-1,.8-1.6.1-.6.2-1.2,0-1.8-.3-1.2-.8-2.4-1.5-3.4-.7-1-1.4-1.9-2.1-2.8-2.7-3.2-5.5-6.2-8.2-9.7-2.9-3.6-5.5-7.3-7.9-11.2-5.6-9.1-10-18.9-13.1-29.2,2.1,5.5,2.7,6,2.8,5.2s-.2-3,.3-2.8c2.2,8.4,5.6,16.4,10.1,23.9,2.8,4.8,6,9.4,9.4,13.8,1.8,2.3,3.7,4.6,5.6,7l1.5,1.8.7.9.4.5.4.6c1.4,1.7,2.2,3.7,2.5,5.8,0-1-.3-2-.8-2.9-.4-.8-.8-1.6-1.3-2.3-.9-1.3-1.4-2-1.9-2.7-.5-.7-1-1.4-1.4-2.1-.2-.5.9.6,2,1.9-2.4-2.9-4.8-5.6-7-8.5s-4.4-5.7-6.3-8.7c-4-6-7.4-12.4-10.2-19,.5.3-.2-1.9-1.5-5.5-1.6-4.7-3-9.4-4.1-14.3.4,4.3-2.2-3.4-4.2-14.6-1-5.6-1.8-12.1-2.4-18.3s-.9-12.1-1-16.6c.2-.6.5.2.8,3.9s.6,10.1,1.8,20.9c-.4-6-.8-10.9-1.1-15.2s-.6-8.2-.9-12.1c-.8-9-.6-18.1.4-27.1-.3,3.4-.5,6.9-.4,10.3.1-8.4.7-16.8,1.7-25.1,1-8.2,2-13.9,1.8-10.4-.2,1.8-.5,3.5-.6,5.3.5-4.4,1.2-9.3,2-14.6s1.7-11,2.9-16.7c2.4-11.7,5.6-23.2,9.4-34.5,7.3-21.9,15.9-39.4,16.4-42,.3-.2-.7,4.8-1.3,6.9,7.7-19.7,17.2-38.6,28.4-56.5-1.2,2.6,1.9,0,3.2-.4.6-.1.8.3-.2,2.3s-3.2,5.5-7.1,11.7c2.4-3.5,5.1-7.3,8.5-12s7.7-10.3,13.3-17.1c-3.8,4.2-10.2,10-5.4,3.9,7.3-7.9,10.1-10.4,13.1-13.5,1.6-1.5,3.2-3.1,5.7-5.5s5.9-5.4,11.1-9.4c-3.3,2.7-3.4,2.2-1.5-.1,3.5-3.9,7.4-7.3,11.7-10.3-1.6,1.4,1.9.7-2,3.8,8.5-7.2,17.9-13.4,28-18.3-1.1.5-2.2,1.1-3.2,1.8-.3.3,0,.4.9.2,1.6-.3,5.1-1.3,8.6-2.4-.8.2.4-.3,2.9-1.1,1.3-.4,2.8-.9,4.6-1.4s3.8-1,5.9-1.3c4.3-.8,8.7-1.3,13.1-1.5h3c1,0,1.9,0,2.8,0l4.3.2c-2.3-.2-4.7-.4-7.1-.5h-7c0,.1,3.4,0,3.4,0h3.2c2.1,0,4,0,5.9.1h5.2c0,.1,2.4.2,2.4.2l2.2.2c2.9.2,5.6.4,8.1.5h1.8c.6.1,1.2.2,1.8.3l3.5.4c2.3.3,4.7.5,7.1.9s5,1,7.9,1.6c3.2.7,6.4,1.6,9.5,2.7,1.9.5,3.8,1.2,5.6,1.9l6.2,2.6c-2.2-.7-5-1.3-5.1-.8,0,.3.6.8,2.4,1.8.9.5,2,1,3.5,1.8s3.2,1.7,5.3,2.8l4,1.5c1.6.7,3.4,1.6,5.5,2.6l3.3,1.6c1.2.5,2.3,1.3,3.5,2l3.8,2.2,2,1.2,2,1.4,4.1,2.9,2.1,1.5c.7.6,1.4,1.1,2.1,1.7,3,2.3,5.8,4.8,8.5,7.4,1.4,1.4,2.8,2.7,4.2,4.2l4.1,4.6,2.1,2.3c.7.8,1.3,1.6,1.9,2.5,1.3,1.7,2.6,3.4,3.9,5,1.1,1.9,2.1,3.8,3.2,5.7,2.5,3.5,4.7,7.3,6.9,11,1.1,1.9,2.1,3.8,3.2,5.7s2.1,3.8,3,5.8c-1-1.8-2.3-3.9-3.8-6.4-.7-1.2-1.5-2.5-2.3-3.9s-1.8-2.7-2.8-4.2-1.9-2.9-3-4.5l-3.4-4.6c-2.2-3.2-4.9-6.2-7.5-9.4l-1-1.2-1-1.1-2.1-2.3-2.1-2.3c-.7-.8-1.4-1.5-2.1-2.2l-4.4-4.2c-.7-.7-1.4-1.4-2.2-2.1l-2.3-1.9-4.4-3.8c-1.5-1.1-3-2.2-4.4-3.3s-2.8-2.1-4.2-3.1l-4-2.6c2.7,1.9,5.2,4,7.6,6.3.7.6,1.6,1.4,3.2,2.8.9.7,1.8,1.7,3.1,2.9l4.7,4.5c1.2,1.5,1.2,1.7.6,1.1-.3-.3-.8-.8-1.4-1.3l-2.3-2-2.7-2.5c-1-.9-1.9-1.8-2.9-2.5l-5-4,4.7,3.9,1.2,1c.4.3.7.7,1.1,1l2.2,2.1,2.2,2.1c.7.7,1.5,1.4,2.2,2.1l4.1,4.5c.7.8,1.4,1.5,2,2.3l1.9,2.4c1.3,1.6,2.6,3.1,3.8,4.8l3.6,5,1.8,2.5,1.7,2.6c0-.6,1.2,1,3.2,3.8,1,1.4,2,3.1,3.2,5,.6.9,1.2,1.9,1.8,2.9l.9,1.5.9,1.5c1.1,2.1,2.3,4.2,3.3,6.1s1.9,3.8,2.7,5.3,1.4,2.8,1.9,3.6.7,1.2.7.9c-7.5-16.3-16.7-31.8-28.3-45.2-.2-.6,1.1.5,3.5,2.9,1.2,1.2,2.5,2.9,4.1,4.7l2.5,3.1,2.6,3.6c9.1,12.9,16.5,27,21.8,41.9,2.7,8.6-4-5.7-4.2-4.8.2.5.7,1.4,1.2,2.5l1.7,4.1c.6,1.6,1.3,3.3,2,5.2s1.3,3.8,2,5.7c.3,1,.7,1.9,1,2.9s.6,1.9.9,2.8c.6,1.8,1.1,3.6,1.6,5.1.9,3.1,1.4,5.5,1.6,6.2-1.4-4.8-3-9.5-4.6-14.2,1.3,4.7,2.7,8.9,3.8,13.1.6,2.1,1.2,4.1,1.8,6.1s1.1,4,1.7,6.1c2.5,9.4,4.4,19.1,5.5,28.8.3,2,.6,4.5.9,7.2s.5,5.5.7,8.1c.4,5.2.7,9.6,1.1,10.3-.2-6.7.5-10.8,1.5-12.1s2.3,0,3.3,4.5c.1,1.5,1.2,12.2,1.8,23.8.3,9.6-.1,19.2-1.3,28.7-1.1,6.7-1.1,1.6-1.2-3.7s-.6-10.8-1.1-5.2c.3.5.2,7.9,0,11-.5,4.2-.7,3.3-.9,3.7s-.4,2-1.6,11.1c0,2.3-.2,4.5-.6,6.7-.5,3.2-1.2,6.8-1.8,9.5-.3,1.2-.6,2.4-.8,3.6.2-.8,1.1-3.9,2.6-11-1,6.3-2.3,12.6-4,18.7-1.4,5-2.9,10.5-6.2,20.6,1.3-3.1.5,1.6-1.8,9.3-2.7,9-6.2,17.8-10.3,26.3.3-1.1-1.9,2.4-3,4.1-4,7.5-8.5,14.6-13.4,21.5-4.2,5.9-8.9,11.6-13.8,16.9-4.8,5.2-10,10.1-15.5,14.6-6.1,5.1-12.7,9.6-19.6,13.5-.7.3-2.2,1.1-3.9,2s-3.7,1.8-5.4,2.5c-3.4,1.4-5.7,2.2-2.5.6-1.1.6-2.2,1.1-3.4,1.6s-2.4,1.2-3.8,1.7-3,1.3-4.9,1.9l-3.1,1.1-3.6,1.1c-1.3.3-2.3.5-3.1.7l-1.8.3c-.8.1-.8,0-.3,0s1.5-.4,2.8-.8,2.8-.8,4.4-1.3c6.3-1.9,12.9-4.7,5.4-2.4-.5.5-6.9,3.1-15.4,5-2.1.5-4.3,1-6.6,1.4-1.1.2-2.3.4-3.4.6l-3.5.5c-2.3.4-4.6.5-6.7.8s-4.2.3-6.2.5c2.3.3,11.2,0,21.2-1.9,9.6-1.8,18.9-4.8,27.8-8.7.1.3-1.2,1.2-4,2.6-4,1.9-8.1,3.5-12.3,4.8-6.4,2-13,3.5-19.7,4.5-8.4,1.3-17,1.8-25.5,1.6l-5-.2-4-.4c-2.4-.2-4.1-.5-5.4-.7-2.6-.4-3.4-.8-3.5-.8s2.8,0,.2-.3c-10.3-1.8-20.4-4.9-29.8-9.3-5.7-2.6-11.1-5.7-16.2-9.3-4.7-3.2-9-6.9-13-11-6.1-6.4-11.3-13.5-15.5-21.3-1.3-2.3-2.4-4.7-3.2-7.2-.3-1,0-.8.6-.1,1.1,1.2,2.9,4,2.2,2.1,2.6,4.7,5.4,9.2,8.4,13.5,2.5,3.6,5.2,7.1,8.1,10.4,1.3,1.6,2.7,3,4,4.4l2.1,2c.7.7,1.4,1.3,2.1,2l2.2,1.9,2.3,1.8,1.1.9,1.2.9,2.4,1.7c-5.4-3.8-10.4-8.2-15-13,3.7,3.6,7.7,7,11.9,10,4.4,3.2,9.1,6.1,13.9,8.7-6.3-3.4-12.2-7.4-17.7-12-4.2-3.5-8.2-7.4-11.8-11.6-4.1-4.8-7.8-9.9-11.1-15.3-6.9-11.6-12.2-24.2-15.8-37.3-3.2-11.8-5.3-23.8-6.3-36-.5-3.7-1-8.8-1.3-12.2s-.5-5.1-.5-2c.2,4.4.6,8.9,1,13.3.3,6.1-.6,0-1.2-5.8s-.9-10.8-.6-2.3c-.9-9.6-1.2-19.3-.9-29,.3-11.5,1.4-23,3.5-34.3.6-1.5,1.1-3,1.7-4.5-.8,3-1.5,6.1-1.9,9.2-.8,4.9-1.5,10.6-1.7,14.2.7-8.2,2-16.4,3.9-24.5,1-4.8,2.2-9.6,3.3-13.9.5-2.1,1-4.2,1.4-6s.8-3.5,1-4.9c-.9,2.8-1.8,5.6-2.6,8.5s-1.7,5.7-2.4,8.5c1.8-8.9,4.1-18.7,7.1-29,3.1-10.6,7-21,11.6-31.1-1.4,2.4-2.7,5-3.8,7.6-.8,1.9-1.9,4.4-5.2,11.7,3.1-6.3-2.2,7.2-5.9,20s-6.4,24.9-3.1,14.2c-1.3,3.9-2.3,7.6-3.2,11.3s-1.6,7.3-2.2,11.2c-1.3,7.7-2.4,16-3.6,26.7.2-.3.4-2.2.5-1.7s-.2,3.5-.5,13c0,.9.2,2.9.2,4.2v1.3-1c0,.8,0,.9,0-.4.2-4.5.5-8.2.7-9.6,0,2.4,0,6,.2,10.3s.2,9.2.5,14.2c.5,8.3,1.5,16.6,3,24.8.8,5.5.6,4.4.1,2.6s-.9-4.2-.6-1.1c1,5,2.1,9.9,3.4,14.8-.2.8,1.3,8.2,2.3,12,.5,1.9.7,3,.3,2.1-.2-.5-.6-1.5-1.1-3.2-.3-.8-.6-1.9-1-3.1s-.7-2.6-1.2-4.2c1.9,7.8,4.4,15.5,7.4,22.9,1.2,3.3,2.8,6.9,4.5,10.6,1.8,3.7,3.8,7.3,5.9,10.8,3.9,6.4,8.5,12.3,13.7,17.7,1,1.1,2.1,2.2,3.2,3.3s2.3,2.2,3.5,3.2,2.4,2,3.5,2.9,2.2,1.6,3.1,2.3c3.8,2.6,5.4,3.6,1.1.9,10.4,7.5,22.1,12.9,34.5,16.2l.3.2c9.2,2.5,18.6,3.9,28.2,4.2,2.4.1,4.8,0,7.2.1s4.8,0,7.3-.2,4.9-.3,7.3-.6,4.9-.5,7.3-.9c1.2-.1,2.4-.4,3.7-.6l3.7-.6c2.4-.5,4.9-1,7.4-1.6,5-1.2,9.8-2.7,14.6-4.4,4.9-1.7,9.6-3.8,14.4-6s9.4-4.8,14-7.6c5.6-3.7,10.9-7.8,16-12.3,6.6-5.8,12.8-12.1,18.5-18.8,1-.9,2-1.8,3-2.8,2.5-3.2,5.5-7.2,8.6-11.6s6.1-9.3,8.9-14c4.1-6.9,7.7-14.1,10.7-21.6,3.1-5.9,5.8-12,8-18.2,1.5-4,3-8.4,4.4-13.1s2.7-9.6,4-14.7c2.4-10.1,4.2-20.3,5.5-30.5,1.2-9.8,1.8-18.9,2.1-26l-.7-1.1c0-4.9,0-9.7-.3-14.6l-.3-3.7c-.1-1.2-.2-2.4-.3-3.6-.2-2.4-.5-4.9-.8-7.3-1.1-9.9-2.6-20.4-4.7-32.1l-.4,1.6c-1.9-10.1-4.2-23.1-7.8-37.4s-8.3-29.9-15-44.8c1.1,2,2,4.1,2.8,6.2.6,1.4,1.2,3,1.8,4.5s1.1,3.1,1.6,4.5c-1.4-4.7-3.3-9.3-5.1-13.9-2-4.6-4-9.2-6.5-13.7l-1.9-3.4c-.6-1.1-1.3-2.2-1.9-3.3-1.3-2.2-2.6-4.4-3.9-6.6s-2.8-4.2-4.2-6.4c-.7-1.1-1.4-2.1-2.2-3.1l-2.3-3c-6-8-12.7-15.4-20.1-22.1l-2.7-2.5-2.8-2.3c-1.9-1.5-3.7-3.1-5.5-4.5l-5.6-4.1c-.9-.7-1.8-1.4-2.8-2l-2.8-1.8-5.4-3.1-5-2.5-4.5-2.3c-1.5-.7-2.9-1.3-4.3-2,.8.3,1.5.6,2.1.8l-3.4-1.4-2.7-1.2c-.9-.4-1.8-.9-2.8-1.2l-6-2.2c3.5,1.4,6.9,2.5,9.7,3.9l-2.5-1c-.9-.4-1.9-.6-2.9-1l-6.4-2.1-1.7-.6-1.8-.4-3.6-.9-3.7-.9c-1.2-.3-2.5-.6-3.7-.8l-4.1-1.5-2.3-.4c-4.9-1.1-6.9-1.1-7-.9s.3.2,1.1.5,1.8.5,3.1.9c-1.3-.2-2.5-.3-3.7-.4l-3.5-.3c-2.3-.2-4.3-.3-6.1-.5-2.5-.5-5.1-.8-7.7-.9-1.5,0-3.1-.2-4.8-.2h-5.3c-7.2.5-14.5,1.9-20.1,2.8-.8.3-2.2.8-4,1.4s-4,1.4-6.4,2.4c-5.6,2.2-10.9,4.9-16.1,7.9-5.1,2.9-9.9,6.2-14.5,9.8-2.7,2-5.2,4.3-7.5,6.8-.4,0-2.7,1.9,1.5-1.5-8.6,6.6-16.5,14.1-23.6,22.3l-3.9,2.9c-5.1,6.4-9.9,13.1-14.4,19.8-4.6,5.8-7.7,10.1-8.8,11.2s-.1-.8,3.8-7.1c-4.9,7.5-8.2,12.9-10.6,17s-4.2,7.2-5.8,10.1-3.1,5.6-5,9.4-4.2,8.5-7.2,15.4v-1.6c-2.3,4.9-5,11.4-7.4,17.4s-4.4,11.6-5.8,14.6c-3.8,9.3-7,18.7-9.5,28.4-1.7,6.5-3.4,13.7-4.7,21.5s-2.5,16-3.5,24.7c-2.1,17.9-3,36-2.4,54,.4,17.2,2.9,34.4,7.3,51-.7-6.1.8,1,3.7,9.7,1.4,4.3,3.2,8.6,5.1,12.7,1.8,3.7,3.3,6.3,4,6.7.7,1.7,2.2,4.5,2.8,5.7s.2,1.1-2.6-3.3c3.8,6.1,7.9,12,12.5,17.6l2.8,3.5.7.8.5.7.2.3v.2c.2.1.3.2.3.4.3.4.5,1,.3,1.6-.3.5-.7.8-1.2,1l-.4.2-.5.2h-.2c0,0-.3.1-.3.1-.2,0-.5.1-.7.2-.9.1-1.9.1-2.8,0-2-.3-4-1-5.8-2-4.1-2.5-7.8-5.6-11-9.2-.9-1.5.2-.3,1.4.9s2.4,2.3,1.5,1.1c-1.4-1.4-2.8-2.9-4-4.5-1.4-1.7-2.7-3.6-3.8-5.5-1.5-2.8,2.6,3.7,5.8,7.1-3.8-4.8-7.3-9.9-10.3-15.2-2.4-4.1-4-7.1-5.3-9.3-2.5-4.4-3.5-5.5-4.5-6.3-2.8-7.6-4.5-13.4-6.2-18.7s-3.1-10-4.8-15.6c-.5-2.8-1-6.5-1-7.1s.6,2,3,11.6c-.7-2.7-2-8.2-3.2-15s-2.4-15-3.2-22.8-1.1-15.4-1.3-21.1-.2-9.5-.4-9.8c.2-1.8.3-5.7.5-9.5s.5-7.6.6-9.1c.6-6.3,1.2-11.1,1.8-15.2s1.1-7.5,1.6-10.8c1.1-6.7,2.2-13.3,4.8-25.4-.5,2.2-1.1,4.5-1.6,6.7.6-5.5,1.6-10.9,3-16.2,1.6-6.2,3.7-13.6,6.4-23.2v.6c3.4-10.9,5.8-17.4,7.4-21.9s2.4-6.7,3.2-9,1.7-4.5,3.4-8.8,4.5-10.5,9.6-20.6l-1.7,1.9c.2-2.2,4.7-11.2,11.4-22.1,7.3-11.7,15.2-22.9,23.7-33.7-1.1,1.1-2.1,2.4-3.1,3.5s-2.1,2.4-3,3.6c5.3-7.3,11.4-14,18.2-19.9l2.8-2.5,2.8-2.4c1.8-1.6,3.8-3,5.5-4.5l5.2-4c1.7-1.2,3.2-2.4,4.7-3.4,2.5-1.7-3.8,3-7,5.9l2.5-2,2.3-1.7,2-1.5,1.8-1.3,2.8-2,2-1.4c2.1-1.5,2.3-1.8,2.2-2s-.5-.2.7-1.1c3.1-2.3,6.3-4.4,9.7-6.1,2.4-.9,1.1.1,1.2.3s.5,0,2-.6l1.3-.6,1.8-.8c1.3-.6,3-1.4,5.1-2.2,4.2-1.6,16.5-7,31.7-9.8,7.8-1.5,15.7-2.2,23.7-2.3,4,0,7.8.2,11.5.3,1.8,0,3.6.2,5.3.4l5,.5c-5.5-.9-11.1-1.7,1.8-.9,12.1,1.3,24,3.7,35.5,7.4,3.1,1,6.2,2.2,9.2,3.2,1.5.5,2.9,1.1,4.4,1.7l4.2,1.7c2.8,1,5.3,2.3,7.7,3.4s4.7,2,6.7,3.1c1,.6,2,1.2,2.9,2,1.6.9,3.6,1.9,5.6,3.2l6.5,4.1c2.2,1.6,4.5,3.3,6.8,5l1.7,1.3,1.7,1.4,3.3,2.8c6.8,5.8,13.2,12.1,19.3,18.7.9,1.6,2.5,3.8,4.6,6.7,1,1.5,2.1,3.1,3.3,4.8l1.9,2.6c.6.9,1.2,1.9,1.9,2.9l4.1,6.2,4.1,6.7c1.4,2.3,2.7,4.7,4,7.1l2,3.6c.7,1.2,1.2,2.4,1.9,3.6,4.4,8.6,8.4,17.5,11.8,26.5,2.6,7.3,4,12,3.4,12.1,4.8,14.8,8.8,29.9,11.9,45.2l-.5-1.2c2.9,14.7,4.3,24.7,5.6,32.3s2,12.8,2.8,18.1c.5,6.9-.2,1.9-.4,1.3.1,1.4.2,2.7.3,4s.2,2.5.2,3.8c.1,2.4.3,4.7.4,6.9,0,1.1.1,2.1.1,3.2v3c0,2,0,3.8,0,5.6,0,7.1-.2,12.9-.6,18.4-.2,5.5-.8,10.8-1.3,17-.4,3.1-.8,6.4-1.2,10.1s-1.2,7.7-2,12.2l-1.6,3.5c-.2,1.2-.7,3.1-1.3,5.5s-1.6,5.3-2.6,8.7c-.3.8-.5,1.7-.8,2.6l-1,2.7c-.7,1.9-1.3,3.8-2.1,5.9s-1.6,4.1-2.5,6.3-1.7,4.4-2.8,6.7l-3.1,6.9c-1.1,2.3-2.3,4.7-3.5,7.1-.6,1.2-1.2,2.4-1.8,3.6s-1.3,2.4-2,3.6c-1.3,2.4-2.6,4.8-4.1,7.2-5.6,9.5-11.9,18.5-18.7,27.2.8-1.3,1.7-2.6,2.7-3.8-7.7,10.2-16.4,19.5-26,27.9-9.8,8.5-20.4,16.1-31.7,22.5-9.6,5.4-19.7,10.1-30,14-2.2.8-4.3,1.6-6.3,2.3l-1.4.5-1.4.5-2.7.9c-1.7.6-3.2,1.1-4.6,1.7-1.4.5-2.6.9-3.6,1.3-10.2,2.8-20.7,4.5-31.2,5.1,5.1,0,8.8-.6,11.5-.8,1.3-.1,2.4-.2,3.2-.3s1.4-.2,1.8-.2c1.6-.2.1.3-2.1.8-4.5.8-12,2-3.6,1.3-2,.2-4.2.5-6.4.7l-6.7.2c-1.1,0-2.2,0-3.2,0l-3-.2-5.2-.4c-1.6-.1-3.1-.4-4.6-.8.6,0,1.2,0,1.8,0l2.2.2h3.2c0,0,3.1.4,3.1.4,1.8-.3-.4-.6-4.8-.9-1.2,0-2.4-.2-3.7-.4l-4.2-.5-2.3-.3-2.3-.5-4.9-1-1.2-.2-1.2-.3-2.4-.7c-1.6-.5-3.2-.9-4.7-1.3l-4.3-1.6-2-.8c-.6-.2-1.3-.5-1.9-.8-2.3-1.1-4.3-2-5.6-2.7s-1.9-1.2-1.8-1.2c-8.9-4.5-17.2-10.1-24.6-16.8-7.4-6.6-14.1-14-20-22-11.6-16-20.7-33.6-27-52.3-6.4-18.3-10.6-37.4-12.4-56.7-.9-9.5-1.1-19.1-.7-28.6.3-9.5,1.1-19,2.2-28.4-.7,2.8-1.4,5.7-2,8.6.8-8.8,2-17.5,3.5-26.2.7-3.4,1.3-5.7,1.3-4.7s-.6,5-2,14.3c1-4.9,2.1-12.7,3.1-19.3s2-12.2,1.9-12.5c2.2-9,3.4-12.5,3.6-13s-.3,2-1,5.4c-1.4,6.7-3.3,16.5-2.1,11,1-5,2.2-10,3.5-14.9-.3,1.1-.7,2.2-1,3.3,1.3-6.1,2-9.4,3.2-13.9,1.9-7.1,4.2-14,6.8-20.9,2.7-6.7,3.6-8.2,4-8.9.7-.9,1.2-1.8,1.5-2.9.3-.5.6-1,.8-1.6.5-1.2,1.4-3.2,2.8-6.2,4.7-10,10.1-19.6,16.3-28.7-2.7,3.5-5.3,7.1-7.8,10.7,3.1-5.6,6.5-11,10.3-16.2,1.2-1.6,1.8-2.5,1.5-2.3-1.4,1.4-2.8,3-4,4.6,5.9-7.7,12.3-14.9,19.2-21.7,5-4.7,10.3-9.1,15.9-13,6.1-4.2,12.5-7.7,19.3-10.5,6.6-2.8,13.6-4.9,20.6-6.3,6.3-1.2,12.8-1.9,19.2-2,5.8-.1,11,.4,15.1.7h1.5c.5.1.9.2,1.4.3l2.4.4,3.5.5c10.3,1.2,20.5,3.7,30.2,7.5,10.7,4.3,20.8,10.2,29.8,17.4-2.4-1.9-4.3-3.6-3.3-3.3,1.3.7,2.6,1.5,3.8,2.4,1,.8,2.3,1.9,3.8,3.1l2.5,2.1c.9.8,1.7,1.7,2.7,2.6-3.6-2,3.8,4.7,11.7,15.1.5.6,1,1.3,1.5,2l1.4,2.1,3,4.3,2.7,4.5,1.3,2.2c.4.8.8,1.5,1.2,2.3l2.3,4.4c.7,1.4,1.3,2.9,2,4.2s1.2,2.6,1.7,3.8.9,2.4,1.2,3.4c-2.8-7.3,4,6.5,8.3,20.2.5,1.7,1,3.4,1.6,5s.9,3.2,1.3,4.7l1.1,4.1.8,3.1c.9,3.4,1.2,3.6.2-2.5,2,8.9,1.7,9.2,1.4,9s-.7-1,.3,5.8c2.1,11.1,3.3,22.4,3.5,33.7.3,12.1-.6,24.3-2.8,36.2l-.4,2.3c-.2.8-.3,1.5-.5,2.3-.3,1.5-.7,3.1-1.1,4.6s-.8,3-1.2,4.6-.9,3-1.4,4.6c-1.9,6.1-4.2,12.1-6.8,18-2.7,5.9-5.8,11.7-9.2,17.2-3.5,5.6-7.3,10.9-11.5,16-.3.8,5.7-5.7-1.3,3.2-6.5,6.7-13.7,12.6-21.5,17.7-2.1,1.5-3.6,2.6-4.9,3.7s-2.5,1.9-4,2.9c-1.8,1.2-3.7,2.3-5.6,3.3-1.2.6-2.7,1.2-4.3,2s-3.6,1.4-5.9,2.2c2.6-.8,6.4-2.1,0,.7-6.1,2.3-12.4,4-18.7,5.2-1.6.3-3.2.6-4.8.8l-4.8.6-4.9.4h-1.2c0,0-1.2,0-1.2,0h-2.4c-6.5,0-12.9-.8-19.1-2.6-6.2-1.8-12.1-4.6-17.4-8.2-10.7-7.3-19.2-17.7-25.8-29.2-6.5-11.6-11.4-24.1-14.7-37-.8-3.2-1.5-6.5-2.1-9.8-.3-1.6-.6-3.3-.8-4.9s-.3-3.3-.5-5c-.5-6.7-.6-13.3-.3-20,.5-13.3,2.9-26.5,7.2-39.2,4.3-12.5,11-24.3,20.5-33,4.7-4.3,10.2-7.9,16.1-10.4,5.9-2.5,12.1-4.1,18.5-4.7-1.7,0-3.1.4-4.1.5s-1.8.2-2.2.3c-.9,0-.8,0,.2-.2s2.6-.6,4.7-1l3.5-.4,1.9-.2c.7,0,1.3,0,2,0-1.8,0-2.6,0-2.9,0s-.2-.1.2-.3c.7-.3,2.2-.6,1.5-.7h5.5c.9,0,1.8,0,2.7,0s1.8.2,2.6.3c3.4.5,6.8,1.6,9.8,3.2,2.9,1.7,5.4,4,7.3,6.8,1.9,2.9,3.2,6.1,4,9.4,1.2,3.3,1.8,6.8,1.9,10.3.2,5.4-.2,10.8-1.3,16.1-1,5.1-2.4,10.1-4.2,15-1.5,4.2-2.9,7.1-3.2,8.3,2-4.2,3.7-8.5,5.1-12.9-1.2,4.5-1.2,5.2-.4,3.9,1.5-2.8,2.8-5.8,3.7-8.9,1.3-4.1,2.4-8.2,3.2-12.4.7-3.5,1-5.9,1.4-5.2,0-2.9-.3-5.9-.7-8.8-.4-3.3-1.2-6.6-2.2-9.8-.6-1.7-1.3-3.4-2.2-5-2.9-5.4-7.4-9.6-13-12-4-1.7-8.2-2.6-12.5-2.8h-1.6c-.5,0-1.1,0-1.6,0h-3.2c-2.2.1-4.3.3-6.5.6l-1.6.2-1.6.3-3.2.6c-1.1.2-2.2.5-3.2.8l-3.2.9-3.2,1.3c-1.1.4-2.1.8-3.1,1.3-2,1-4,2.1-5.9,3.3-3.5,1.8-2.1.9-.3-.3.9-.6,1.9-1.3,2.5-1.6s.7-.5-.4,0c-4.6,2.8-8.9,6-12.9,9.6-6,5.5-11.1,11.9-15.2,19l1-2c-3.4,5.7-6.2,11.7-8.3,18-1.9,5.6-3.5,11.2-4.7,17-2.1,10.4-3.3,21-3.4,31.7,0,5.2,0,10.5.5,16,.5,5.8,1.5,11.5,2.9,17.1,1.5,6.2,3.3,12.4,5.5,18.4,2.5,7,5.5,13.7,9,20.2-.6-1.5-1.1-3-1.6-4.5,1.5,3.1,2.9,5.4,4,7.5s2.1,3.6,3,4.9l2.4,3.7,2.6,3.6c5.6,5.7-1.1-1.4-6.2-9.8-5.3-8.3-9.1-17.4-5.6-11.2,3,7,6.9,13.6,11.5,19.7,3.3,4.3,7,8.4,11,12,4.4,3.9,9.3,7.3,14.5,10,2.6,1.4,5.3,2.5,8.1,3.5l4.1,1.3c1.4.4,2.8.7,4.1,1,.7.2,1.3.3,2,.5l2,.3c1.3.2,2.7.4,4,.5l3.8.3c.6,0,1.2,0,1.8.1h1.8c2.4,0,4.6,0,6.6-.2,2-.2,3.9-.2,5.6-.4s3.2-.3,4.4-.4,2.3-.2,3.1-.3c1.3-.2,2.4-.5,3.4-.7l2.4-.6c1.3-.3,2-.5,2.3-.7.7-.2,0-.2-.9,0s-1.6.2-.9,0c.3-.1,1.1-.3,2.3-.7l5.6-1.7c1.8-.4,3.6-1,5.4-1.4,1.6-.8,3.2-1.7,4.7-2.5,6.3-2.7,11-5.1,14.1-6.7,1.6-.8,2.8-1.4,3.6-1.9.5-.3,1-.5,1.5-.6-2.8,1.9-8.1,5.1-11.3,6.8,2-1,4.3-2.1,6.5-3.5,1.1-.7,2.3-1.3,3.5-2.1l3.5-2.3c4.8-3.3,9.3-6.9,13.5-10.8l1.5-1.4,1.4-1.5,2.8-2.8c1.7-1.9,3.3-3.6,4.7-5.2l3.5-4.2c.9-1.2,1.7-2.1,2.2-2.7-4.2,5.4-8.7,10.4-13.7,15,10.7-10.6,19.7-22.7,26.7-36.1,7.3-13.9,12.5-28.9,15.5-44.3,1.5-7.7,2.5-15.5,2.9-23.3.4-7.7.4-15.3,0-23-.4-7.6-1.3-15-2.4-22.1-.3-1.8-.6-3.6-.9-5.3-.3-1.8-.7-3.5-1-5.2-.7-3.5-1.5-6.8-2.3-10.2l.6,4.1c-1.2-5.1-2.4-9.4-3.4-13.1l-1.6-5.2c-.2-.8-.5-1.6-.7-2.3s-.5-1.5-.7-2.1c-1.8-5.5-3.4-9.6-5-13.7-.9-2-1.7-4.1-2.7-6.4s-2.2-4.7-3.6-7.6c-4-7.7-8.6-15.1-13.8-22,.4.4.7.9,1,1.3-7.1-9-15-17.2-23.8-24.5,2.3,1.8,2.4,1.8,1.5.9-.5-.5-1.2-1.1-2-1.9l-2.9-2.3c-2-1.6-3.8-3.2-4.5-3.6s.1-.3,3.3,2c-2.3-1.8-4.6-3-6.6-4.3l-2.9-1.8c-.9-.5-1.8-1-2.7-1.4-3.4-1.8-6-3.2-8.2-4l-5.2-2.1-.9-.4-.8-.3-1.4-.4-5.8-1.7c-.3-.1-.7-.2-1.1-.3l-1.2-.3-3-.7c-2.3-.5-5.1-1.3-8.8-1.8-2.2-.6-4.4-1.3-6.7-1.9l-6.4-.5c-1.9-.2-3.7-.3-5.8-.4s-4.7-.2-8.2-.4h-9.5c-.6.1-1.3.1-2,.2l-2.1.2c2.3-.3,3.9-.3,4.8-.4s1.2-.1,1.2-.2c-1.2-.2-2.4-.2-3.6-.2-1.1,0-2.2,0-3.2-.1.1-.1,2-.5,7.3-.8-5.7,0-11.4.4-17.1,1.3-2.7.4-5.2,1-7.7,1.5s-4.8,1.2-7,2c-8,2.5-15.6,6.1-22.8,10.5-5.7,3.5-11.1,7.3-16.2,11.5-4.7,3.9-8.8,7.7-13,11.5-1,1.2-1.9,2.4-2.7,3.8-.2.4.3,0,1.3-1,1.9-1.9,5.7-6,10-9.9,8.5-8,19.6-15,14.4-11.4,4.5-2.6.7,0-5.3,4.8-6.7,5.6-13,11.6-18.7,18.2-5,5.8-9.4,10.7-15,18.3s-12.4,18.1-20,36c1.5-3.5,1.5-3.8,3.1-7.3-3.1,6.6-5.9,13.3-8.2,20.2-2.5,7.1-4.9,14.6-7.6,23-.9,4.9-2.4,10.5-3.5,15.2s-1.9,8.7-1.6,10.2c2.3-11.6,5.2-23,8.6-34.3-2.8,9.6-5,19.1-7.1,30.2s-4.3,23.8-6.5,40.1c0-2.6.9-12.3,1.9-19-1.9,9.5-2.4,18.4-3.6,28.3-.5-1.5.3-12.2,2.3-25.1,1-6.5,2.2-13.5,3.6-20.2s2.8-13.1,3.9-18.3c-2.1,7.4-3.7,14.8-5,22.3-1.3,7.4-2.1,12.2-1.8,6.8-.6,7.8-2,17.2-3.3,28-1.5,11.9-1.9,24-1.4,36l-.7-1.7c0,4.2.8,12.8,1.6,20.4-.8-4.6-1.4-9.2-1.9-13.8.8,10.7,1.8,20.9,3.4,30.9,1.5,10.1,3.8,20,6.9,29.7-1.5-5.1-2.7-9.2-3.4-12.3-.4-1.6-.7-2.9-1-4s-.4-2.1-.6-2.9c-.6-3.1-.6-3.6-.3-3.3s.6,1.4.7,1.2,0-.4,0-1.3-.4-2.3-.7-4.6c2.7,12.9,5.2,21,6.8,27,.9,3,1.6,5.4,2.2,7.6s1.2,4.2,1.8,6.2,1.3,4,2.1,6.4c.4,1.2.8,2.5,1.4,3.8s1.2,2.8,1.8,4.5l1.1,2.6c.4.9.8,1.8,1.3,2.8.9,1.9,1.9,4.1,3.1,6.3.6,1.1,1.3,2.3,1.9,3.6s1.4,2.6,2.2,3.9,1.7,2.7,2.5,4.2c.5.7.9,1.5,1.4,2.2s1,1.5,1.5,2.3c-.6-.8-1.3-1.8-2-3l-2.2-3.7c-.8-1.3-1.6-2.6-2.2-3.9s-1.3-2.5-1.9-3.7c-.8-1.4-1.4-2.8-2-4.3,0-.4.4.4,2,3.1,1.3,2.5,2.7,5.2,4.3,7.9l2.3,4c.8,1.3,1.7,2.6,2.5,3.9l2.4,3.7c.8,1.2,1.6,2.3,2.3,3.3,1.5,2.1,2.7,4,3.8,5.4l4.2,5c1.2,1.4,2.3,2.5,3.2,3.4,1.8,1.9,2.8,3,3.4,3.5s.6.5.3.1-.9-1-1.6-1.9c-2.8-3.3-7.5-8.8-1.6-2.8,1.1,1.3,2.1,2.5,3.1,3.6s2,2,3,3,1.9,1.8,2.9,2.7l3.1,2.5,3.3,2.5,3.8,2.5,2,1.4c.7.5,1.4,1,2.2,1.4l5.1,3.1-.3.7c3.9,2.4,7.9,4.5,12,6.3l4.2,1.8,3.2,1.1c3.7,1.2,5,1.5,6.2,1.6,1.9.2,3.7.5,5.5,1,1.6.5,3.8.8,6.8,1.4l2.4.5c.9.2,1.8.3,2.8.5l6.7.8c-2.8-.2-5.7-.3-8.5-.5l-8.5-1.2,5.2,1,2.6.5c.4,0,.9.2,1.3.2h1.3c0,.1,5.3.7,5.3.7.9,0,1.8.2,2.6.2h2.6c-1.5.3-2.9.5-4.4.6,1.4.1,2.8.2,4.2.2h3.8c1.2,0,2.4.1,3.5,0l3.3-.2,6.1-.3,5.7-.6c1.8-.2,3.7-.3,5.6-.6l5.9-1,3.2-.5c1.1-.2,2.2-.5,3.4-.7,2.3-.5,4.8-1,7.6-1.7-1.3.2-1.8.1-1.5,0,.3-.2.7-.3,1-.5.5-.2,1.2-.5,2.2-.8,1.8-.7,4.4-1.5,7.7-2.6l5.4-2c2-.7,4.2-1.4,6.4-2.4,6.3-2.3,4.6-1.5,4.6-1.3.8-.2,1.7-.5,2.4-.9,1-.4,2.4-1.1,4.3-2l3.3-1.6,2-1,2.2-1.2c-7.2,4.6-15,8.1-23.2,10.5-1.1.6-5.8,2.5-6.9,3.1l5.5-1.8c1.9-.6,3.9-1.2,5.9-2.1l6-2.4,1.5-.6,1.5-.7,2.9-1.4c1.9-1,3.9-1.8,5.7-2.8l5.2-2.8c3.3-1.7,6.1-3.6,8.2-4.8l-5.2,3.1c-1.7.9-3.3,1.7-4.4,2.2,11.8-6.7,22.9-14.6,33.1-23.6,5.1-3.9,1.3-.5-2.4,2.9l4.4-3.8,2.1-1.9,2.1-2,4.7-4.5c1.7-1.6,3.5-3.6,5.6-5.7-.8,1.3-1.6,2.6-2.6,3.8-.4.5-.8,1-1.4,1.7s-1.3,1.3-2.1,2.2l-3,3c-1.2,1.1-2.5,2.5-4.2,3.8,9.7-8.6,18.6-18.1,26.6-28.3.5-.5,1.5-1.6,2.8-3.1s2.6-3.2,3.9-4.8,2.4-3,3-3.7.8-.8,0,.2c7.4-10.3,13.8-21.4,19.1-32.9,6.1-13.1,11.3-26.6,15.5-40.4.2-.7.4-1.8.8-3.4s.9-3.8,1.6-6.8c.8-3.2,1.7-6.4,2.3-9.6.3-1.6.7-3.2,1-4.8s.7-3.2.9-4.8c.5-3.2,1.1-6.4,1.6-9.6s.8-6.5,1.2-9.8c1.4-14.3,1.4-28.6,0-42.9,0-3,0-6-.2-9l-.4-8.9c-1.6-12.2-1.2-6.2-1.1-2.2,0,2,0,3.5-.3,1.9-.2-.8-.4-2.3-.8-4.9s-.9-6.3-1.7-11.3c-1.1-7.2-1.8-11.4-2.2-13.9s-.3-3.3-.2-3.5c.2-.4,1,1.5.2-3.5l-1.3-5.8c-.4-2.1-1-4.3-1.6-6.6l-1.9-7.4c-.7-2.5-1.4-5.2-2.2-8-3.1-11-6.8-23.4-11-36.1,1.6,4.1,2.9,7.9,4.2,11.5s2.2,7.4,3.5,11.3ZM411.3,215.5l5.2-1.4c2-.5,4.1-.9,6.2-1.4s4.2-.7,6-1c1.5-.2,3-.3,4.5-.3-6.7,1.6-11.9,1.9-21.9,4.1h0ZM278.6,610.9c-3.2-5.4-5.9-11.1-8-17,2.2,5.1,4.8,10.8,8,17ZM367.2,628.5c.1.2.2.4.3.5,3.2,5.9,4.6,7.6,4.2,7.1s-2.3-3.5-4.5-7.6ZM356.2,603.1c-1-2.6-1-2.4-.8-1.2.8,1.8,2.8,7.7,5.6,14.1-.3-.9-.8-2.2-1.6-4.3-.4-1-.9-2.2-1.4-3.6-.3-.7-.6-1.5-.9-2.3s-.6-1.7-.9-2.7h0ZM349.4,395.2l-2.2,4.7c2.2-5.5,3.1-7.4,3.3-7.6-.3,1-.6,1.9-1,2.9h0Z"/>
  <path class="st0" d="M259,562.4c-.2-.8-.3-1.7-.2-2.5-.7-2.2-.9-2.2.2,2.5Z"/>
  <path class="st0" d="M648.2,555.3l-.3.9c0,.3-.1.6-.1.9l.4-1.8Z"/>
  <path class="st0" d="M628,492.2c.6-5.5.8-8.5,1.1-10.6-.2-.3-.3,2.2-1.1,10.6Z"/>
  <path class="st0" d="M353.5,459.5c-1.4,5.7-2.8,11.4-3.8,17.2,1-5.2,2.3-10.3,3.8-15.4-.3.3-1.3,3.5,0-1.8Z"/>
  <path class="st0" d="M438.8,339.6c1.1-.6,2.4-1,3.7-1.5s2.5-.9,3.7-1.3h-.8c-.7,0-1.3.3-1.9.5l-1.8.7c-1.1.5-2.2.8-3.1,1.3-1.9.9-3.3,1.5-4.1,2s-1,.6-.3.3,2.1-.9,4.7-2Z"/>
  <path class="st0" d="M360.3,444.6c1-1.1,4-11.6,8.6-23l-.8,2c.6-3.6-4.2,8.6-7.8,21Z"/>
  <path class="st0" d="M369.9,419c1.5-3.5,3-7,4.6-10.3.2-.7-.3.3-1.2,2.3s-2.1,4.9-3.4,8Z"/>
  <path class="st0" d="M347.7,569.3c-.7-5.8-1.3-3.5-1.5-6.8-.8-3.2.6,6.5,2,12.9.3,1.8.8,3.6,1.4,5.3,0-.2-.2-1-.5-2.8s-.9-4.5-1.5-8.5Z"/>
  <path class="st0" d="M365.3,435.9c-.7,1.3-1.5,2.6-2.1,3.9-.5,2.2-1.1,4.4-1.5,6.7.5-1.8,1.2-3.5,1.8-5.3l.9-2.6,1-2.6Z"/>
  <path class="st0" d="M348,529.8c.1-6.5.4-12.9,1-19.4-.1-1.7,0-3.5.2-5.2-.6,6-1,12.2-1.1,17-.2,2.5-.2,5.1,0,7.7Z"/>
  <path class="st0" d="M349.2,505.2c.6-6.2,1.4-12.1,1.8-15.5-.5,3.4-1.4,10.5-1.8,15.5Z"/>
  <path class="st0" d="M357.8,461.3l-1.6,5.5c-1.1,4.4-2.1,8.9-2.9,13.4,1.3-6.3,2.8-12.6,4.5-18.9Z"/>
  <path class="st0" d="M458.4,681.2c7.1.3,14.2.2,21.2-.4,2.1-.5-3.6,0-11.5.1-1.3,0-2.7,0-4.1,0s-2.8,0-3.9,0c-2.2,0-3.4,0-1.7.2Z"/>
  <path class="st0" d="M399.6,658.8c4.5,3.5,4.8,3.7,7.3,5.7l1-.5c-1.5-.8-2.8-1.7-4.2-2.5s-2.7-1.8-4.1-2.7Z"/>
  <path class="st0" d="M456.3,678.8c.5,0,2.7,0,5.2,0s5.4,0,7.4-.2,3.1-.2,2.1-.2h-6.5c-1.2,0-2.7,0-4.3-.1-.5,0-2.2,0-4.2,0s-4.2-.3-5.7-.4-2.4-.2-1.7,0c.3,0,1.1.2,2.3.4l5.4.6Z"/>
  <path class="st0" d="M630.9,459.8c.2,1.8.3,3.6.4,5.4l1.5-.8c-.6-1.5-1.2-3-1.8-4.5Z"/>
  <path class="st0" d="M489.6,245.1c1.5.3,2.8.5,4,.8l3.1.8c1.8.5,3.1.8,4.1,1,1.1.3,2.2.4,3.2.5.9.1,1.9.3,2.8.6.8.2,2,.6,3.5,1.1l2.7.9c.5.2,1.1.4,1.6.6l1.8.8c1.4.5,1,.2-.2-.3-.8-.4-1.6-.7-2.4-1l-3.1-1.1c-4.2-1.5-8.5-3-5.7-2.2-7.2-1.8-12.7-3.1-15.7-3.4s-3.2-.3,0,.8Z"/>
  <path class="st0" d="M505.2,247.7l7.3,2.2c-4.1-1.3-6.1-1.9-7.3-2.2Z"/>
  <path class="st0" d="M501.2,460.6c-1.2,5-2.8,9.9-4.9,14.7,1.4-3,2.6-6.1,3.7-9.3.5-1.8.9-3.6,1.2-5.4Z"/>
  <path class="st0" d="M490.9,488.3c-.9.7-1.9,1.4-2.9,2-1.6,2.2-3.8,4-5.2,4,.6,0,1.2,0,1.8-.3.9-.4,1.7-.9,2.5-1.6,1.4-1.3,2.8-2.6,4-4.1Z"/>
  <path class="st0" d="M368.4,231.9l-1,.9c1.2-.6,2.6-1.4,4.5-2.5l3.5-1.9,2.1-1.2,2.5-1.2c-1,.5-2,.9-3,1.4l-2.9,1.5c-1.9,1-3.7,2-5.6,3.1Z"/>
  <polygon class="st0" points="577.4 256.6 576 255.2 574.5 254 575.8 255.3 576.9 256.7 579.2 259.5 577.4 256.6"/>
  <path class="st0" d="M654.4,423.2c-.6-3.7-1.3-7.8-2.1-11.9s-1.6-8.1-2.4-11.8c.9,4,1.5,7.7,2,10.8s.8,5.8,1.1,7.9c.6,4.2.9,6,1.3,5Z"/>
</svg>