<svg id="Capa_1" data-name="Capa 1" xmlns="http://www.w3.org/2000/svg" viewBox="0 0 1920 1080"><defs><style>.cls-1{fill:#664c42;}.cls-2{fill:#8f695f;}.cls-3{fill:#e2ccc1;}.cls-4{fill:#e5d2c8;}</style></defs><polygon class="cls-1" points="720.86 909.43 785.99 947.02 1172.24 909.43 1234.46 839.44 1300.24 659.28 1226.36 394.21 1170.95 278.21 1012.98 211.78 888.39 133.04 794.74 292.14 662.53 393.57 619.76 607.43 654.92 779.66 720.86 909.43"/><polygon class="cls-2" points="683.6 672.18 753.91 799.2 785.99 946.96 1172.24 909.37 1234.46 839.38 1300.24 659.22 1227.01 396.1 1170.95 278.15 1014.11 212.37 888.39 132.98 831.25 292.67 718.59 409.71 683.6 672.18"/><path class="cls-3" d="M1017.27,612c17.26,3.16,47.88-86.52-6.07-86.52-69.79,0-78.5,78-74.37,115.68,2.08,18.94,20.42,98.67,86,94.78s113.31-60.68,118.92-131.07c4.87-60.92-19.76-183.41-137.87-187.3S851.77,576,853.72,650.85s49.09,190,158,174.5,187.62-124.92,176.44-250.81-62.7-245.46-203.66-245.46S794.9,510.87,789.07,596.9,825.47,767.23,852.26,750c13.61-8.75-58.82-27.22-31.6-190C834.53,477,908.15,352.66,992,352.66,1135.3,355,1159.45,497,1166.25,574.54c5.67,64.65-30.3,216.94-158.45,221.16-125.19,4.11-136.1-135.13-116.66-213.87S950.93,448.65,1002,448.65s132,33.86,112.61,158.46c-8.43,54.11-39.21,100.61-95.6,88.94S958.75,557,1000.5,559C1025.54,560.2,984.76,606,1017.27,612Z"/><path class="cls-4" d="M1013.36,607a12,12,0,0,0,3,1,3.1,3.1,0,0,0,1.19,0c.36-.09.08-.34.54-.3a27.68,27.68,0,0,1-4.64-1.22c-.77-.27-1-.33-1-.23S1013.43,607.13,1013.36,607Z"/><path class="cls-4" d="M970.45,603.84l-.11-2.15a131.75,131.75,0,0,0,.53,17.78A135.74,135.74,0,0,1,970.45,603.84Z"/><path class="cls-4" d="M1018.33,698.2a58.4,58.4,0,0,1-10.7-4.33,51.93,51.93,0,0,1-6.45-4.11,58.75,58.75,0,0,1-6.3-5.57A69.88,69.88,0,0,1,984.37,670a84.89,84.89,0,0,1-3.84-7.7c-1.09-2.56-2.08-5-2.84-7.45-.31-1.06-.57-2.14-.83-3.22-1.19-2.78-2.29-5.62-3.26-8.51.72,3,1.6,6,2.63,9.13s2.2,6.21,3.56,9.29a96.1,96.1,0,0,0,4.56,9.07A78.52,78.52,0,0,0,990,679a56,56,0,0,0,13.86,13A45.48,45.48,0,0,0,1018.33,698.2Z"/><path class="cls-4" d="M1077.74,688.66c-.85.48-.6.21-.09-.21l1.33-1.15-.33.28c-.33.27-.89.75-1.88,1.44s-2.26,1.74-4.19,2.89a62.33,62.33,0,0,1-7.55,4.16c1.33-.53,1.7-.7,2.45-1.07l1.88-1,1.1-.59,1.18-.72c.83-.51,1.77-1.06,2.79-1.72Z"/><path class="cls-4" d="M1067.48,695c-1.36.77-2.35,1.13-2.93,1.42a4.71,4.71,0,0,0-.78.39c.06,0,1.13-.44,2.33-.95C1068.44,694.74,1071.18,693.23,1067.48,695Z"/><path class="cls-4" d="M1105,653.67a111.43,111.43,0,0,1-7.61,14.08c.51-.68,1.4-1.92,2.36-3.36s2-3.11,2.78-4.55c1.64-2.9,2.74-4.86,1.57-2.48,1.85-3.68,3-6.31,3.66-8a10.14,10.14,0,0,0,.89-2.54,10.66,10.66,0,0,0-1,1.86C1107,649.88,1106.12,651.64,1105,653.67Z"/><path class="cls-4" d="M1110.05,639.53c-.84,2.58-1.82,5.13-2.81,7.68a26,26,0,0,0,1.16-2.68c.24-.6.49-1.3.78-2.12S1109.73,640.63,1110.05,639.53Z"/><path class="cls-4" d="M1099.65,662.91a121.24,121.24,0,0,0,7.59-15.7c-.54,1-.91,1.54-1.35,2.47-.23.46-.45,1-.75,1.8s-.68,1.73-1.13,3C1104.32,653.08,1103.27,656.39,1099.65,662.91Z"/><path class="cls-4" d="M1094,671.09a78.3,78.3,0,0,1-7.79,8.69c-.75.69-1,.8-.28,0s2.22-2.49,4.71-5.62a84.16,84.16,0,0,1-11.54,11.8l-1.66,1.42c-.46.39-.85.67-1.11.89-.55.45-.68.6-.42.47a16,16,0,0,0,1.93-1.24l1.75-1.33c.67-.53,1.45-1.1,2.24-1.83A75.71,75.71,0,0,0,1094,671.09Z"/><path class="cls-4" d="M1024.21,698.12c-1.92-.38-3.82-.76-5.72-1.18a43.81,43.81,0,0,1-5.62-1.81,42.74,42.74,0,0,1-9.22-4.37l2.09,1.28c.83.51,1.82,1,2.86,1.59a45.15,45.15,0,0,0,7,2.82c1.19.36,2.37.64,3.43.88l2.81.5C1023.42,698.11,1024.37,698.24,1024.21,698.12Z"/><path class="cls-4" d="M1121.83,557.91c-.29-1-.27,5.34-.5,6.51l.19,5.8c0,1.93.19,3.88.11,5.8.13-1.48.11-3.31.14-5.22s.06-3.92.08-5.76A70.87,70.87,0,0,1,1121.83,557.91Z"/><path class="cls-4" d="M1121.33,564.42l-.73-8.66c-.3-2.88-.78-5.75-1.16-8.62.22,1.93.43,3.66.61,5.21.09.78.18,1.51.26,2.2s.1,1.33.15,1.94c.16,2.42.3,4.19.41,5.45C1121.12,564.46,1121.22,564.92,1121.33,564.42Z"/><path class="cls-4" d="M1109.86,636.5a130.85,130.85,0,0,1-11.1,26.24,134.16,134.16,0,0,0,12.74-31.46C1111,633,1110.4,634.76,1109.86,636.5Z"/><path class="cls-4" d="M1101.72,494.32c1.93,2.76,3.94,5.49,5.61,8.42a112.11,112.11,0,0,0-10.41-14.67C1098.52,490.14,1100.19,492.18,1101.72,494.32Z"/><path class="cls-4" d="M1069.61,463.13c3.25,1.84,1.21.3-.82-1.2s-4.15-2.76-.63-.92c-2.69-1.49-5.24-3-7.85-4.19-1.29-.61-2.55-1.25-3.82-1.79l-3.76-1.53c-1.22-.53-2.46-.95-3.68-1.37l-3.59-1.23c-2.39-.67-4.68-1.42-7-1.95,1.21.29,2.41.68,3.62,1.06s2.44.76,3.67,1.18c2.44.94,5,1.79,7.54,3A100.74,100.74,0,0,1,1069.61,463.13Z"/><path class="cls-4" d="M1023.12,445.93c2.43.43,4.94.72,7.48,1.28,1.28.26,2.58.49,3.89.78l4,1-3.82-1c-1.27-.3-2.56-.53-3.83-.8C1028.29,446.61,1025.7,446.31,1023.12,445.93Z"/><path class="cls-4" d="M1112.44,518.29c-.41-1.29-.7-4-4.94-12.95.48,1.06.85,2.16,1.23,3.26l1.14,3.28C1110.81,513.77,1111.56,516,1112.44,518.29Z"/><path class="cls-4" d="M1110,512.11l-.09-.23c-.77-1.71-1.49-3.29-2.14-4.72s-1.4-2.66-2-3.77l-1.54-2.89c-.47-.79-.87-1.42-1.17-1.89.26.4.6.95,1,1.66s.88,1.64,1.46,2.73l2,3.85Z"/><path class="cls-4" d="M1113.05,519.92c-.23-.6-.39-1-.61-1.63A6.71,6.71,0,0,0,1113.05,519.92Z"/><path class="cls-4" d="M1119.29,592.43c.07-1.27.15-2.7.24-4.2s.22-3.07.2-4.62c0-3.08,0-6,0-8s-.21-3-.3-2.3-.32,3.23-.66,8.29c.07,3.62.3,2.54.51,2.44s.21.15.24,1.31S1119.49,588.62,1119.29,592.43Z"/><path class="cls-4" d="M1114.86,528.28c.79,3,1.42,6,2.13,9,.5,3,1.06,6,1.51,9.07.08-.19,0-1.11.08-1.37s.31.14.67,2.64c-.2-1.64-.55-3.26-.87-4.88l-1-4.85c-.33-1.62-.82-3.21-1.22-4.81S1115.38,529.85,1114.86,528.28Z"/><path class="cls-4" d="M1111.91,519.74c.6,1.38,1.06,2.82,1.53,4.25l1.42,4.29-2-6.56C1112.61,521,1112.24,520.4,1111.91,519.74Z"/><path class="cls-4" d="M1053.54,455.58A150.12,150.12,0,0,0,1028,447.8a133.36,133.36,0,0,1,30.17,10.52,9.69,9.69,0,0,0,2.1.65,6.46,6.46,0,0,0-1.42-.86A53.9,53.9,0,0,0,1053.54,455.58Z"/><path class="cls-4" d="M1086.36,477.63l-1.34-1.2C1085.79,477.22,1086.42,477.84,1086.36,477.63Z"/><path class="cls-4" d="M938.7,475.7c.39-.38.73-.7,1.15-1.07.06-.11.09-.19.18-.33C939.57,474.75,939.13,475.22,938.7,475.7Z"/><path class="cls-4" d="M1059.69,459.23c1.8.88,3.33,1.83,4.76,2.63l2,1.16c.65.37,1.25.77,1.84,1.13l3.31,2c1,.63,2,1.31,2.94,1.93-2.4-1.8-5.07-3.37-7.75-5.09-2.78-1.56-5.61-3.22-8.69-4.68C1057.52,458.11,1057.38,458.11,1059.69,459.23Z"/><path class="cls-4" d="M995.65,444.74c1.07-.1,2.18-.1,3.31-.1s2.32,0,3.49,0c2.33.11,4.76.18,7.23.43-2-.27-5.12-.47-7.92-.58A39.45,39.45,0,0,0,995.65,444.74Z"/><path class="cls-4" d="M1083.15,474.44l.9.8C1082.21,473.34,1082.4,473.62,1083.15,474.44Z"/><path class="cls-4" d="M1083.15,474.44a88.9,88.9,0,0,0-8.56-6.35l2.92,2.09c.92.74,1.81,1.46,2.69,2.15s1.74,1.36,2.53,2.06l2.29,2C1084.32,475.71,1083.63,475,1083.15,474.44Z"/><path class="cls-4" d="M924.33,501.24a18.65,18.65,0,0,1,2-3.79c1.19-2.07,3-4.76,5.16-7.81a106.48,106.48,0,0,1,17.48-18.94c3.18-2.94,5-4.69,5.82-5.57s.35-1-.89-.48a38.6,38.6,0,0,0-5.79,3.38c-1.22.87-2.54,1.88-4,3s-2.79,2.36-4.27,3.64c-.1.29-.12.47-1.6,2.3-.72.93-1.89,2.21-3.45,4.25s-3.7,4.71-6.33,8.41c.48-.63,1.27-1.58,2.23-2.74s2.06-2.56,3.35-4,2.59-3,4-4.44l2.08-2.18c.69-.7,1.41-1.35,2.07-2,1.32-1.28,2.54-2.42,3.59-3.27s1.83-1.53,2.28-1.87c.91-.67.44-.06-2.27,2.62-4.27,4.17-7.05,7.34-9.11,9.7s-3.38,3.93-4.44,5.24c-2.16,2.56-3.43,3.89-6.86,8.59,1.52-1.95,1.28-1.31.13.69l-2.28,3.87c-.87,1.55-1.86,3.29-2.86,5.06-3.94,7.13-7.41,15.11-5.78,13,3-6.2,6.31-12.28,9.94-18.17C924.89,499.52,921.17,506,924.33,501.24Z"/><path class="cls-4" d="M967.79,453.55c1.11-.64,2.31-1.11,3.45-1.66l1.74-.81c.59-.25,1.19-.47,1.79-.71l-1.52.56c-.49.19-1,.41-1.44.61l-2.79,1.2c-1.81.84-3.57,1.71-5.4,2.64l-2.76,1.53c-1,.51-1.91,1.09-2.9,1.72s-2,1.25-3.12,2l-3.35,2.33a97.07,97.07,0,0,0-9.13,8.56A24.23,24.23,0,0,0,940,474.3a101.32,101.32,0,0,1,30.09-22C969.33,452.73,968.54,453.1,967.79,453.55Z"/><path class="cls-4" d="M1008.56,445.39l-6.07.24c-1.18,0-2.41.19-3.57.27l-1.7.15c-.55.06-1.06.16-1.55.23-3.88.63-5.57,1.05,0,.84,1.37-.18,2.64-.19,3.81-.24s2.24-.13,3.21-.09c1.94,0,3.54,0,4.87,0,2.67.13,4.32.1,5.68.19l4,.16,2.8.27c1.12.13,2.45.24,4.07.54-4.38-.75-7.53-1.12-9.72-1.32s-3.41-.32-4-.36c-1.11-.09.48-.1,2.37,0a37.62,37.62,0,0,0,4.23.16c.07,0-.38-.13-1.65-.31s-3.35-.48-6.58-.69A124.7,124.7,0,0,1,1028,447.8a140.29,140.29,0,0,0-18.3-2.73l.82.09h.13c1.54.18,2,.26.31.11l-.75,0a9.2,9.2,0,0,1-1.63.15c-1.29-.11-2.29-.15-3-.18l-1.54-.07c-.59,0-.37-.05.28-.05l2.84,0,3.08.13a2,2,0,0,0,.44-.07h-.13c-3-.2-6-.24-9-.22l-4.58.2-4.55.5a76.13,76.13,0,0,0-17.61,4.73l2.81-1c1-.32,2-.61,3.1-.95l1.66-.5,1.77-.42c1.22-.27,2.48-.64,3.84-.86s2.8-.49,4.32-.72l4.87-.5c1.71-.05,3.54-.16,5.44-.16S1006.46,445.23,1008.56,445.39Z"/><path class="cls-4" d="M1117.51,562.93c0-1.09,0-1,.08-1.12C1117.37,559.56,1117.26,558.71,1117.51,562.93Z"/><path class="cls-4" d="M1116.64,548.58l.71,4.27a75.86,75.86,0,0,1,.74,8.59c.25,7.17-.31,0-.5.37.33,2.47.39,6.82.56,8.61s.34,1,.33-6.84l-.24-2.47c-.08-1.76-.15-3.59-.23-5.43s-.32-3.69-.47-5.51c-.08-.91-.16-1.82-.23-2.7s-.15-1.77-.29-2.62c-.24-1.7-.46-3.32-.67-4.81-.34-3-.93-5.43-1.18-7s-.38-2.24-.21-1.64c.19,2.1.45,4,.75,6.64.11,1.31.24,2.77.42,4.5S1116.56,546.23,1116.64,548.58Z"/><path class="cls-4" d="M1082,476.06a108.19,108.19,0,0,0-24.59-16.1l3.28,1.8,3.19,2c2.15,1.26,4.14,2.78,6.19,4.18l-.45-.69c6.88,4.73,9.29,7,10.51,7.77S1081.11,475.44,1082,476.06Z"/><path class="cls-4" d="M936.16,478l2.17-3.39A157.05,157.05,0,0,0,928,488.46c1.28-1.78,2.61-3.55,3.93-5.31S934.7,479.67,936.16,478Z"/><path class="cls-4" d="M914.3,509.67l.16-1.53c-1.51,3-3,6.05-4.41,9.14C911.39,514.71,912.85,512.19,914.3,509.67Z"/><path class="cls-4" d="M1095.73,359.08c2.34,1.71,4.71,3.4,7,5.15C1099.47,361.74,1097.3,360.21,1095.73,359.08Z"/><path class="cls-4" d="M1039.06,332.3l-1.56-.11C1040.35,332.79,1041.54,333,1039.06,332.3Z"/><path class="cls-4" d="M1045.19,357.37c-1.5-.55-3-1.22-4.52-1.68l-4.54-1.41c-3-.88-5.75-1.87-8.19-2.33-4.84-1.09-8-1.71-7.26-1.24l3.73,1.34c2.18.39,4.25.7,6.18,1.12l5.44,1.4,4.86,1.3C1042.41,356.32,1043.82,356.89,1045.19,357.37Z"/><path class="cls-4" d="M798.24,684.13l.83,3.54c1.1,2.83,2.15,5.47,3.16,7.8C800.94,692.1,799.56,688.23,798.24,684.13Z"/><path class="cls-4" d="M793.38,676.3q-1.77-8.1-3-16.26C790.88,663.71,791.71,669,793.38,676.3Z"/><path class="cls-4" d="M1182.83,672.15c-.37,1.65-.7,3.31-1.12,5L1180.4,682c.63-1.88,1.15-3.42,1.57-4.69s.65-2.27.87-3a15.39,15.39,0,0,0,.54-2.39C1183.37,671.48,1182.81,672.8,1182.83,672.15Z"/><path class="cls-4" d="M1032.66,796.47a126.47,126.47,0,0,0,26.39-7.45,151.67,151.67,0,0,1-16.63,5.06c-2.33.51-4.34,1-6,1.39A30.35,30.35,0,0,0,1032.66,796.47Z"/><path class="cls-4" d="M1071.47,352.13c1.18.5,2.12,1.06,2.94,1.48l2,1c1,.52,1.53.71,1.5.61-2.32-1.26-4.13-2.24-5.27-2.8S1071,351.82,1071.47,352.13Z"/><path class="cls-4" d="M1086.9,773.7c-1.6,1.1-3.24,2.08-4.9,3.14a125.18,125.18,0,0,1-23,12.18,113.74,113.74,0,0,0,14.18-6.45A102.11,102.11,0,0,0,1086.9,773.7Z"/><path class="cls-4" d="M1070.73,726.62c-.81.43-1.83.85-2.6,1.19A9.94,9.94,0,0,0,1070.73,726.62Z"/><path class="cls-4" d="M1020.33,529.41a33.26,33.26,0,0,0-6-.94c-.58-.06-1.19-.08-1.81-.09s-1.24-.06-1.9,0l-3.93.14c1.26,0,3-.12,5.25-.11A34.65,34.65,0,0,1,1020.33,529.41Z"/><path class="cls-4" d="M879.71,657.76c-.33-8.11-.12-1.28,0,0Z"/><path class="cls-4" d="M883.4,618.6a13.89,13.89,0,0,0,0,3.22A20.36,20.36,0,0,1,883.4,618.6Z"/><path class="cls-4" d="M1135.73,710.33l.33-.6C1134.83,711.76,1135,711.41,1135.73,710.33Z"/><path class="cls-4" d="M879.76,645.55c-.08,3-.12,6.55,0,10.38C879.74,654.25,879.67,651.09,879.76,645.55Z"/><path class="cls-4" d="M879.46,647.19c0-2.8.08-5,.12-7.09C879.51,639.07,879.36,640,879.46,647.19Z"/><path class="cls-4" d="M880.47,669.06c-.41-4.64-.64-9-.73-13.13,0,1.59,0,2.26,0,1.83C879.83,660.14,880,663.5,880.47,669.06Z"/><path class="cls-4" d="M856.32,590.55c.11-.52.23-1.12.34-1.69.53-4,.71-5.15.58-4.5S856.74,587.44,856.32,590.55Z"/><path class="cls-4" d="M872.86,440.87c.19-.31.3-.48.47-.77l-.66,1Z"/><path class="cls-4" d="M858.65,465.52a149.34,149.34,0,0,1,7-13.5c2.22-3.79,4.41-7.17,7-10.95q-3.37,3.4-6.66,6.95Q862.08,456.69,858.65,465.52Z"/><path class="cls-4" d="M1175.34,483.22c-1.77-6.56-3.63-13.11-5.78-19.58,4.69,11.44,7.64,21.67,9.17,26.59.78,2.45,1.12,3.61,1.06,3s-.61-3.07-1.71-7.75a14.42,14.42,0,0,1-1.73-3.93c-.85-2.23-1.93-5.29-3.14-8.91-.58-1.81-1.33-3.73-2.06-5.76s-1.51-4.17-2.3-6.37l-2.65-6.71c-.46-1.14-.91-2.29-1.37-3.44s-1-2.28-1.47-3.42c-1-2.28-2-4.56-3-6.81s-2.13-4.38-3.15-6.49c-2-4.25-4.25-8.06-6.09-11.41-.91-1.68-1.87-3.18-2.74-4.52s-1.63-2.51-2.31-3.5c-1.35-2-2.28-3.16-2.71-3.31l-3.56-5.75-1.79-2.88-1.92-2.79c2.31,3.12,2.72,3.6,4.82,6.81l-2.41-3.89c-.79-1.17-1.55-2.22-2.25-3.2-1.41-2-2.63-3.58-3.73-5-2.31-2.77-4.22-4.69-6.24-6.81-.51-.53-1-1.08-1.57-1.62l-1.79-1.69c-1.25-1.2-2.63-2.54-4.23-4.15-.4-.41-.81-.83-1.25-1.26l-1.41-1.3-3.15-2.94c-1.14-1.06-2.31-2.27-3.68-3.46l-4.45-3.86c-9-7.67-15.76-12.47-9-8-1.75-1.34-3.65-2.46-5.5-3.66s-3.71-2.38-5.59-3.51l-5.79-3.17-2.89-1.59c-1-.5-2-.94-3-1.41-6.87-3.41-5-2.91,1.82.49a168.09,168.09,0,0,0-37.6-14.06l.3,0c-1.41-.27-3.23-.77-5.34-1.05l-6.76-1.08c-1.17-.18-2.34-.4-3.5-.55l-3.39-.35-5.72-.6-2.66-.47a5.27,5.27,0,0,1-.82-.13,9,9,0,0,1,1.94.13c2.2.26,5.34.66,4.07.35-1.83-.21-3.66-.45-5.5-.63l-5.52-.33-5.51-.33c-.92-.08-1.84-.09-2.76-.08l-2.76,0c-4.48-.38-2.16-.58,3.22-.62,2.68,0,6.12.31,9.85.54s7.72.82,11.51,1.36c-2.53-.62-4.72-1.11-6.7-1.52s-3.76-.54-5.45-.74-3.31-.3-5-.4-3.38-.22-5.29-.18H989l-3.88,0c-1.39,0-2.89.08-4.5.11a188.57,188.57,0,0,0-25.9,2.41,146.67,146.67,0,0,1,21-2.81,104.81,104.81,0,0,0-23.21,2.06,162.64,162.64,0,0,0-29.88,9l3.47-1.25c.79-.28,1.65-.62,2.6-.93l3-1A128.49,128.49,0,0,1,945,329.6c2-.45,3.85-.68,5.22-.91a13.54,13.54,0,0,1,2.67-.25c.65.08-1.2.62-7.06,2.19a113.51,113.51,0,0,0-27,10.17c-.35-.54-12.08,4.93-24.87,14.58l.32-1.41c-1.76,1.28-3.19,2.49-4.47,3.53L888,359l-1.48,1.33c-1.84,1.65-3.14,2.85-4.2,4s-2,2.06-3.08,3.21-2.31,2.48-4.05,4.33c-6.83,6.73-10.71,11-13.46,13.87s-4.32,4.32-6,5.91c-2.38,3-3.87,5.1-4.8,6.39a10.82,10.82,0,0,0-1.2,1.89c.08.09,1.61-1.86,3.14-3.59s2.93-3.33,2.61-2.66-2.45,3.53-7.55,11a238.62,238.62,0,0,0-17.87,30A333.17,333.17,0,0,0,814.88,470c-6.56,16.43.52-3.11-2,2.73-1.59,5-3.14,10-4.55,15-1.24,3.63-1.07,2.39-1,1.75-1.9,6.33-1.74,6.67-1.87,7.9s-.63,3.34-3.31,13.34c-.24,2.83-3.45,13-6.6,25.73s-6.19,28.18-7.13,41c-1,6.26-.21-3.1-.81-1.23-.89,8.79-1.3,15.09-1.53,20s-.27,8.56-.25,12,.1,6.6.35,10.76.61,9.27,1.49,16.45c.49,8.21,1.39,16.4,2.63,24.55-.61-4.51-.7-6.47-.52-6.55s.63,1.69,1.35,4.63c1.38,5.89,4,16.42,7.07,26-1.4-6.25-2.35-11.62-3-15.21a240.61,240.61,0,0,0,9.34,30.6c1.21,3.67-.28.79-2.36-4,.77,2,1.56,4,2.18,5.46,1.86,5.43,2.24,6.77,1.58,5.87a65.42,65.42,0,0,1-3.86-7.91c-1.14-3.77-2.16-7.54-3.06-11.22-2.86-7.44-5.15-14.58-5.32-12.83.59,2,1.71,5.92,3,10.2-.71-2-1.2-3.22-1-2.26a90.37,90.37,0,0,0,3.13,9.28c.41,2.44.85,4.89,1.35,7.34l1,1.54a183.3,183.3,0,0,0,8.1,19.73,117.67,117.67,0,0,0,11,18.56,62.21,62.21,0,0,0,8.2,8.35,31.48,31.48,0,0,0,10.42,6,17.85,17.85,0,0,0,6.33.81,11.45,11.45,0,0,0,1.63-.18,12.73,12.73,0,0,0,1.6-.36,15.27,15.27,0,0,0,3.35-1.39,12.62,12.62,0,0,0,1.56-1,4.38,4.38,0,0,0,.71-.56,4.23,4.23,0,0,0,.62-.65,4.15,4.15,0,0,0,.84-1.58,4.37,4.37,0,0,0,.07-1.8,9.24,9.24,0,0,0-1.48-3.38,33.3,33.3,0,0,0-2.1-2.78c-2.67-3.15-5.47-6.23-8.18-9.66a116.75,116.75,0,0,1-7.9-11.19,126.12,126.12,0,0,1-13.11-29.19c2.12,5.54,2.71,6,2.76,5.18s-.24-3,.29-2.81A92.57,92.57,0,0,0,836,716.92a125.38,125.38,0,0,0,9.4,13.78c1.79,2.3,3.68,4.59,5.63,6.95l1.46,1.81.73.94.37.5.44.6a11.27,11.27,0,0,1,2.47,5.79,7.68,7.68,0,0,0-.75-2.93,16.11,16.11,0,0,0-1.32-2.34c-.91-1.34-1.42-2-1.88-2.66a17.31,17.31,0,0,1-1.43-2.1c-.2-.47.88.61,2,1.9-2.41-2.92-4.77-5.62-7-8.46s-4.36-5.73-6.34-8.73a123.17,123.17,0,0,1-10.24-19c.54.3-.24-1.86-1.46-5.49A142.09,142.09,0,0,1,824,683.21c.41,4.33-2.2-3.37-4.22-14.64-1-5.63-1.84-12.13-2.39-18.35s-.86-12.13-1-16.59c.25-.56.51.23.78,3.87s.59,10.12,1.77,20.88c-.43-6-.78-10.86-1.09-15.23s-.64-8.23-.94-12.06a140.24,140.24,0,0,1,.38-27.14,88.41,88.41,0,0,0-.39,10.29,247.34,247.34,0,0,1,1.72-25.12c1-8.21,2-13.93,1.75-10.36-.22,1.75-.46,3.51-.64,5.27.53-4.39,1.21-9.33,2-14.64s1.68-11,2.86-16.73A294.12,294.12,0,0,1,834,518.2c7.35-21.91,15.86-39.38,16.44-42,.31-.24-.68,4.83-1.34,6.87a343.89,343.89,0,0,1,28.41-56.55c-1.2,2.58,1.89-.09,3.15-.36.64-.14.82.32-.19,2.31s-3.22,5.5-7.14,11.66c2.38-3.45,5.09-7.27,8.55-12s7.66-10.31,13.26-17.11c-3.84,4.2-10.25,10-5.43,3.85,7.34-7.9,10.06-10.44,13.11-13.54,1.57-1.51,3.21-3.15,5.74-5.47s5.9-5.37,11.07-9.42c-3.29,2.69-3.44,2.18-1.47-.13a68.57,68.57,0,0,1,11.7-10.26c-1.57,1.44,1.86.69-2,3.76a135.64,135.64,0,0,1,28-18.29,13.86,13.86,0,0,0-3.2,1.79c-.31.32,0,.36.86.19,1.62-.33,5.06-1.33,8.61-2.37-.84.21.43-.28,2.94-1.12,1.26-.43,2.85-.87,4.64-1.37s3.81-1,5.93-1.34a89.4,89.4,0,0,1,13.06-1.51l3-.07c1,0,1.9.08,2.76.11l4.32.16c-2.35-.17-4.72-.37-7.07-.51l-3.47,0-3.49.14,3.38-.22,3.15-.07c2.06,0,4,.14,5.86.19l5.21.15,2.39.05,2.25.17c2.93.23,5.57.4,8.06.54l1.85.1c.61,0,1.2.13,1.79.19l3.51.41c2.32.28,4.66.52,7.14.87s5,1,7.91,1.63a85.32,85.32,0,0,1,9.51,2.68,56.53,56.53,0,0,1,5.58,1.94l6.17,2.58c-2.19-.73-5-1.33-5.06-.79,0,.27.63.82,2.38,1.78.87.47,2,1.05,3.49,1.75s3.17,1.74,5.27,2.83l4,1.55c1.58.7,3.39,1.6,5.46,2.59l3.29,1.6c1.16.54,2.27,1.29,3.49,2l3.77,2.23,2,1.18,2,1.36,4.09,2.89,2.12,1.51c.68.56,1.37,1.12,2.06,1.7a105.65,105.65,0,0,1,8.47,7.44c1.4,1.36,2.83,2.74,4.25,4.16l4.07,4.56,2.05,2.34c.68.78,1.29,1.63,1.94,2.46q1.92,2.5,3.86,5.05c1.12,1.87,2.12,3.83,3.17,5.73,2.53,3.55,4.66,7.34,6.94,11.05,1.11,1.87,2.1,3.81,3.15,5.71s2.11,3.82,3,5.79c-1-1.79-2.29-3.91-3.78-6.35-.74-1.22-1.52-2.52-2.35-3.88s-1.81-2.72-2.77-4.16-1.95-2.94-3-4.47l-3.39-4.57c-2.22-3.18-4.9-6.22-7.48-9.4l-1-1.18-1-1.14-2.1-2.27-2.1-2.28c-.69-.76-1.38-1.53-2.14-2.22l-4.42-4.25c-.74-.69-1.42-1.43-2.19-2.06l-2.28-1.93-4.41-3.75c-1.49-1.15-3-2.23-4.42-3.3s-2.79-2.14-4.17-3.06l-4-2.58a62.34,62.34,0,0,1,7.57,6.31c.68.63,1.55,1.38,3.25,2.81.88.68,1.83,1.69,3.12,2.89l4.74,4.49c1.18,1.45,1.25,1.67.63,1.13-.32-.26-.78-.75-1.42-1.31l-2.27-2-2.7-2.46c-1-.85-1.88-1.76-2.89-2.51l-5-4,4.67,3.9,1.16,1c.38.34.74.7,1.11,1.05l2.19,2.1,2.2,2.1c.72.71,1.49,1.38,2.15,2.15l4.11,4.49c.68.76,1.4,1.47,2,2.27l1.92,2.37c1.27,1.59,2.57,3.15,3.82,4.75l3.55,5,1.78,2.48,1.65,2.58c-.09-.6,1.19,1,3.16,3.79,1,1.36,2,3.12,3.2,5,.58.94,1.17,1.91,1.78,2.89l.91,1.5.86,1.55c1.13,2.08,2.27,4.16,3.33,6.09s1.92,3.81,2.72,5.34,1.43,2.78,1.89,3.57.68,1.16.69.9c-7.54-16.26-16.71-31.8-28.33-45.23-.15-.57,1.13.51,3.5,2.9,1.17,1.21,2.48,2.85,4.06,4.74l2.51,3.06,2.59,3.6a177.68,177.68,0,0,1,21.84,41.87c2.73,8.56-4-5.68-4.15-4.79.25.51.67,1.37,1.16,2.49l1.65,4.12c.61,1.58,1.33,3.32,2,5.17s1.32,3.8,2,5.73c.33,1,.65,1.93,1,2.88s.58,1.91.87,2.84c.55,1.84,1.08,3.59,1.55,5.13.88,3.11,1.44,5.46,1.6,6.25-1.4-4.78-3-9.49-4.62-14.19,1.29,4.72,2.66,8.94,3.8,13.07.58,2.06,1.22,4.06,1.77,6.08s1.1,4,1.65,6.1a201.74,201.74,0,0,1,5.52,28.77c.29,2,.57,4.54.86,7.21s.47,5.5.71,8.11c.4,5.23.74,9.61,1.1,10.28-.16-6.66.51-10.76,1.47-12.1s2.31.06,3.26,4.45c.13,1.45,1.17,12.17,1.75,23.8a175.6,175.6,0,0,1-1.35,28.72c-1.06,6.69-1.08,1.58-1.25-3.72s-.56-10.83-1.14-5.17c.3.5.2,7.89,0,11-.5,4.24-.66,3.34-.86,3.69s-.4,1.95-1.63,11.13a34.45,34.45,0,0,1-.64,6.73c-.48,3.2-1.21,6.85-1.78,9.5a34.45,34.45,0,0,0-.75,3.57c.2-.75,1.07-3.9,2.61-11a185.58,185.58,0,0,1-4,18.73c-1.37,5-2.87,10.47-6.18,20.61,1.35-3.13.51,1.63-1.77,9.27a179.44,179.44,0,0,1-10.3,26.33c.27-1.08-1.9,2.44-3,4.11a194.13,194.13,0,0,1-13.42,21.5,168.62,168.62,0,0,1-13.82,16.9,158.1,158.1,0,0,1-15.53,14.6,142.25,142.25,0,0,1-19.59,13.55c-.73.33-2.19,1.12-3.91,2s-3.67,1.78-5.39,2.46c-3.41,1.44-5.68,2.2-2.53.56-1.1.59-2.22,1.07-3.38,1.64s-2.41,1.15-3.85,1.73-3,1.29-4.93,1.93l-3.06,1.07-3.58,1.07c-1.26.32-2.28.53-3.08.67l-1.78.32c-.78.13-.81.09-.32-.07s1.48-.43,2.76-.76,2.79-.83,4.37-1.28c6.27-1.94,12.88-4.67,5.36-2.43-.54.46-6.94,3.06-15.36,5-2.1.48-4.3,1-6.58,1.4-1.13.2-2.27.43-3.42.62l-3.45.5c-2.28.38-4.56.54-6.73.8s-4.25.32-6.15.48c2.35.35,11.23.05,21.22-1.87a129.76,129.76,0,0,0,27.85-8.69c.14.29-1.25,1.24-4,2.59a92,92,0,0,1-12.3,4.85,126.39,126.39,0,0,1-19.66,4.51,149.49,149.49,0,0,1-25.51,1.57l-5-.25-4-.37c-2.37-.2-4.13-.55-5.44-.73-2.63-.42-3.42-.75-3.48-.85s2.77,0,.25-.33a118.72,118.72,0,0,1-29.85-9.34,113.76,113.76,0,0,1-16.25-9.27,84.58,84.58,0,0,1-13-11,100.93,100.93,0,0,1-15.51-21.28,47,47,0,0,1-3.23-7.24c-.27-1,.05-.75.57-.14,1.06,1.22,2.89,4,2.22,2.08a145.52,145.52,0,0,0,8.4,13.55,114.06,114.06,0,0,0,8.12,10.37c1.31,1.57,2.72,3,4,4.4l2.08,2c.69.68,1.39,1.34,2.12,2l2.16,1.91,2.26,1.82,1.14.91,1.2.86,2.44,1.74a100,100,0,0,1-15-13.05,112.31,112.31,0,0,0,11.92,10.05,119.48,119.48,0,0,0,13.9,8.68,113,113,0,0,1-17.7-12,100.74,100.74,0,0,1-11.79-11.61,114.93,114.93,0,0,1-11.12-15.34,147.17,147.17,0,0,1-15.75-37.27,199,199,0,0,1-6.31-36c-.49-3.7-1-8.77-1.32-12.15s-.49-5.09-.55-2c.24,4.44.56,8.88,1,13.3.32,6.13-.63-.08-1.21-5.77s-.92-10.82-.64-2.35a254.53,254.53,0,0,1-.94-29,219.84,219.84,0,0,1,3.52-34.32c.57-1.52,1.14-3,1.74-4.52a73.21,73.21,0,0,0-1.89,9.17c-.82,4.89-1.49,10.63-1.71,14.18a186.85,186.85,0,0,1,3.86-24.47c1-4.8,2.19-9.61,3.27-13.9.54-2.14,1-4.18,1.43-6s.8-3.51,1-4.94c-.91,2.82-1.81,5.63-2.63,8.47s-1.67,5.68-2.42,8.55c1.81-8.87,4.08-18.71,7.11-29a221.63,221.63,0,0,1,11.62-31.08,58.32,58.32,0,0,0-3.76,7.6c-.75,1.88-1.86,4.38-5.16,11.73,3.08-6.28-2.18,7.18-5.9,20s-6.4,24.86-3.14,14.17c-1.31,3.89-2.35,7.62-3.21,11.3s-1.59,7.34-2.25,11.17c-1.31,7.65-2.44,16-3.64,26.71.17-.33.43-2.22.48-1.67s-.2,3.54-.54,13c.08.86.16,2.88.21,4.17,0,.58,0,.78,0,1.28,0-.38,0-.66,0-1,.05.83.05.9,0-.39.17-4.51.47-8.16.7-9.64.07,2.36.09,6,.16,10.3s.24,9.25.53,14.23A215.08,215.08,0,0,0,884,683.93c.8,5.55.57,4.41.14,2.64s-.87-4.18-.59-1.12q1.47,7.49,3.44,14.84c-.19.81,1.35,8.15,2.3,12,.49,1.94.72,3,.3,2.08-.2-.49-.61-1.48-1.14-3.17-.26-.85-.58-1.86-1-3.06s-.73-2.61-1.19-4.22a174.21,174.21,0,0,0,7.4,22.91c1.22,3.34,2.77,6.92,4.49,10.58a121.85,121.85,0,0,0,5.9,10.85A101.62,101.62,0,0,0,917.74,766c1,1.09,2.07,2.16,3.16,3.28s2.33,2.15,3.48,3.2,2.38,2,3.48,2.88,2.2,1.63,3.12,2.32c3.77,2.62,5.4,3.6,1.14.9a104.08,104.08,0,0,0,34.5,16.15l.29.25a123.53,123.53,0,0,0,28.17,4.2c2.41.11,4.82.09,7.24.12s4.84-.06,7.28-.24,4.87-.28,7.32-.56,4.89-.54,7.35-.88c1.23-.14,2.45-.36,3.68-.58l3.69-.64c2.45-.54,4.92-1,7.36-1.64a147.5,147.5,0,0,0,14.64-4.37c4.86-1.71,9.64-3.76,14.39-6s9.38-4.81,14-7.57a151.71,151.71,0,0,0,16-12.28,183,183,0,0,0,18.49-18.82c1-.93,2-1.84,3-2.79,2.48-3.18,5.5-7.21,8.58-11.64s6.14-9.3,8.89-14a151.19,151.19,0,0,0,10.67-21.6,140.54,140.54,0,0,0,8-18.22c1.48-4,3-8.43,4.37-13.11s2.74-9.62,4-14.67a289.66,289.66,0,0,0,5.54-30.54c1.22-9.83,1.85-18.9,2.06-26l-.74-1.09c.1-4.86,0-9.68-.3-14.57l-.3-3.67c-.11-1.2-.23-2.4-.35-3.61-.23-2.42-.5-4.87-.78-7.34-1.13-9.91-2.56-20.38-4.65-32.13l-.42,1.56c-1.9-10.09-4.22-23.09-7.77-37.38s-8.3-29.9-15-44.83a53.62,53.62,0,0,1,2.83,6.22c.59,1.43,1.22,3,1.8,4.49s1.07,3.08,1.56,4.46c-1.45-4.67-3.31-9.26-5.14-13.92-2-4.57-4-9.21-6.47-13.69L1134,434.3c-.57-1.13-1.26-2.21-1.9-3.32-1.3-2.19-2.55-4.41-3.92-6.56s-2.82-4.25-4.24-6.37c-.68-1.08-1.45-2.09-2.22-3.11l-2.29-3a160.53,160.53,0,0,0-20.13-22.07l-2.65-2.48-2.78-2.3c-1.86-1.51-3.65-3.06-5.49-4.52l-5.62-4.11c-.93-.67-1.82-1.4-2.77-2l-2.84-1.84-5.41-3.14-5-2.52-4.47-2.34c-1.47-.7-2.92-1.31-4.34-2,.77.32,1.46.6,2.06.83l-3.38-1.43-2.71-1.24c-.92-.4-1.83-.87-2.8-1.2l-6-2.19c3.48,1.38,6.87,2.5,9.68,3.87l-2.53-1.05c-.9-.35-1.87-.64-2.86-1l-6.41-2.09-1.7-.56-1.78-.44-3.62-.89-3.69-.89a37.16,37.16,0,0,0-3.74-.8l-4.13-1.49-2.33-.4c-4.9-1.12-6.93-1.07-7-.94s.35.25,1.11.47,1.85.45,3.13.86c-1.26-.24-2.51-.32-3.72-.43l-3.51-.29c-2.26-.18-4.33-.34-6.13-.45a51.56,51.56,0,0,0-7.7-.86c-1.52-.09-3.14-.17-4.81-.23l-1.27,0-1.31,0-2.68.1c-7.15.4-14.52,1.8-20.09,2.66-.83.3-2.21.78-4,1.36s-4,1.41-6.43,2.41a124.66,124.66,0,0,0-16.12,7.87A130.47,130.47,0,0,0,926.93,374a55.24,55.24,0,0,0-7.55,6.75c-.36.09-2.72,1.91,1.5-1.54a164.05,164.05,0,0,0-23.64,22.32l-3.87,2.93c-5.12,6.42-9.91,13.06-14.43,19.84-4.64,5.81-7.72,10.08-8.8,11.22s-.13-.79,3.84-7.06c-4.94,7.47-8.16,12.85-10.64,17s-4.17,7.2-5.78,10.06-3.07,5.62-5,9.35-4.19,8.48-7.21,15.42l.1-1.59c-2.36,4.88-5.1,11.37-7.48,17.41s-4.43,11.64-5.79,14.62a227.87,227.87,0,0,0-9.49,28.41c-1.71,6.47-3.37,13.71-4.65,21.53s-2.49,16.05-3.49,24.67a365.06,365.06,0,0,0-2.44,54,222.63,222.63,0,0,0,7.26,51.05c-.74-6.13.75,1,3.65,9.72a116.39,116.39,0,0,0,5.1,12.71c1.76,3.66,3.35,6.31,4,6.68.7,1.72,2.2,4.46,2.81,5.72s.25,1.07-2.56-3.26a157.39,157.39,0,0,0,12.48,17.58l2.84,3.55.65.84.53.73.2.27.13.19c.08.12.15.25.22.37a1.74,1.74,0,0,1,.3,1.57,2.57,2.57,0,0,1-1.25,1l-.36.16-.46.15-.24.07-.35.07c-.24,0-.46.12-.7.15a11.23,11.23,0,0,1-2.84,0,16.72,16.72,0,0,1-5.8-2,46.76,46.76,0,0,1-11-9.2c-.91-1.49.19-.29,1.38.86s2.4,2.29,1.47,1.1a51.73,51.73,0,0,1-4-4.5,41.75,41.75,0,0,1-3.77-5.49c-1.45-2.75,2.62,3.66,5.81,7.11a118.11,118.11,0,0,1-10.29-15.21c-2.38-4.09-4-7.12-5.26-9.32-2.5-4.4-3.54-5.48-4.55-6.32-2.75-7.62-4.5-13.43-6.15-18.68s-3.07-10-4.8-15.62c-.45-2.8-1-6.53-1-7.12s.56,2,3,11.59c-.67-2.71-2-8.22-3.17-15s-2.4-15-3.15-22.82-1.13-15.43-1.3-21.11-.17-9.46-.41-9.75c.15-1.75.31-5.65.53-9.47s.48-7.61.58-9.08c.6-6.26,1.22-11.08,1.78-15.17s1.09-7.46,1.63-10.81c1.12-6.7,2.22-13.35,4.8-25.44-.54,2.22-1.07,4.45-1.57,6.68a100.78,100.78,0,0,1,3-16.18c1.57-6.23,3.65-13.64,6.41-23.22l0,.58c3.44-10.91,5.82-17.44,7.4-21.86s2.41-6.73,3.22-9,1.65-4.55,3.43-8.81,4.47-10.55,9.58-20.58l-1.72,1.89c.23-2.21,4.68-11.21,11.36-22.07a353.44,353.44,0,0,1,23.74-33.66c-1.07,1.15-2.09,2.35-3.11,3.55s-2.06,2.37-3,3.6a123.75,123.75,0,0,1,18.23-19.93l2.77-2.48,2.83-2.36c1.84-1.59,3.76-3,5.55-4.46l5.25-3.95c1.69-1.2,3.24-2.36,4.67-3.4,2.55-1.71-3.8,3-7,5.93l2.55-2,2.31-1.72,2-1.5,1.79-1.26,2.82-2,2-1.35c2.13-1.49,2.3-1.79,2.2-1.95s-.46-.21.66-1.12a66.14,66.14,0,0,1,9.72-6.12c2.38-.94,1.08.1,1.24.32s.54,0,2-.63l1.28-.59,1.76-.76c1.34-.56,3-1.39,5.12-2.23,4.25-1.63,16.55-7,31.73-9.78a134.38,134.38,0,0,1,23.66-2.32c4,0,7.84.17,11.52.29,1.84,0,3.62.24,5.34.42l4.95.55c-5.54-.85-11.1-1.7,1.8-.93a177.77,177.77,0,0,1,35.5,7.43c3.1,1,6.15,2.18,9.15,3.21,1.51.48,2.94,1.13,4.37,1.72l4.2,1.73c2.79,1,5.31,2.34,7.74,3.43s4.71,2,6.68,3.06a16.68,16.68,0,0,1,2.93,2c1.63.93,3.6,1.87,5.57,3.21l6.47,4.15c2.23,1.57,4.49,3.29,6.82,5l1.74,1.29,1.67,1.39,3.33,2.78a234.59,234.59,0,0,1,19.3,18.66c.86,1.57,2.51,3.81,4.57,6.67,1,1.47,2.1,3.07,3.32,4.78l1.9,2.64c.64.92,1.24,1.9,1.9,2.89l4.09,6.17,4.09,6.74c1.45,2.26,2.7,4.7,4,7.08l2,3.6c.67,1.19,1.25,2.44,1.87,3.65a254.86,254.86,0,0,1,11.8,26.55c2.55,7.28,4,12,3.39,12.15a393.23,393.23,0,0,1,11.86,45.18l-.47-1.15c2.92,14.66,4.3,24.7,5.6,32.29s2,12.85,2.8,18.06c.53,6.91-.18,1.9-.36,1.34.12,1.36.24,2.68.35,4s.15,2.54.23,3.75c.14,2.43.27,4.72.39,6.9.08,1.09.11,2.14.11,3.18s0,2,0,3c0,2,.06,3.82.09,5.59-.1,7.1-.17,12.86-.55,18.39-.21,5.54-.78,10.83-1.3,17-.38,3.1-.79,6.41-1.24,10.08s-1.23,7.68-2,12.19l-1.62,3.52c-.24,1.22-.67,3.08-1.26,5.49s-1.55,5.32-2.55,8.69c-.26.83-.5,1.71-.8,2.6l-1,2.72c-.66,1.86-1.35,3.83-2.07,5.87s-1.63,4.12-2.48,6.3-1.72,4.42-2.79,6.66l-3.14,6.93c-1.1,2.34-2.34,4.67-3.53,7.07-.62,1.19-1.18,2.41-1.85,3.59s-1.32,2.38-2,3.57c-1.35,2.39-2.62,4.84-4.12,7.18a251.7,251.7,0,0,1-18.73,27.17,28.43,28.43,0,0,1,2.7-3.83A186.58,186.58,0,0,1,1110,776a193.74,193.74,0,0,1-31.74,22.48,223.73,223.73,0,0,1-30,14.05q-3.32,1.18-6.26,2.3l-1.44.55-1.41.46-2.66.89q-2.55.87-4.62,1.66c-1.37.53-2.6.9-3.63,1.33A156.52,156.52,0,0,1,997,824.82c5.12,0,8.83-.62,11.49-.8,1.32-.13,2.39-.19,3.21-.28s1.43-.19,1.83-.23c1.61-.15.14.27-2.09.81-4.47.8-12,2-3.56,1.29-2,.23-4.19.48-6.4.68l-6.68.17c-1.1,0-2.18.07-3.23,0l-3-.18-5.21-.38a20.89,20.89,0,0,1-4.63-.84,8.4,8.4,0,0,1,1.81.06l2.21.2,3.2.09,3.09.26c1.83-.28-.44-.58-4.83-.88a36,36,0,0,1-3.65-.39l-4.25-.55-2.3-.29-2.35-.47-4.87-1-1.24-.24-1.21-.35-2.42-.68c-1.61-.46-3.21-.88-4.74-1.35l-4.35-1.61-2-.75a16.42,16.42,0,0,1-1.86-.76c-2.33-1.09-4.26-2-5.56-2.67s-1.93-1.15-1.77-1.17A113.76,113.76,0,0,1,917,795.76a143.89,143.89,0,0,1-20-22,195.51,195.51,0,0,1-27-52.26,241.43,241.43,0,0,1-12.39-56.7,222.61,222.61,0,0,1-.71-28.63q.52-14.3,2.22-28.42c-.71,2.85-1.37,5.71-2,8.57q1.26-13.17,3.46-26.25c.68-3.41,1.33-5.66,1.34-4.74s-.63,5-2,14.31c1-4.87,2.09-12.68,3.14-19.34s1.95-12.16,1.89-12.45c2.19-9,3.36-12.52,3.62-13s-.26,2-1,5.38c-1.43,6.65-3.27,16.47-2.06,10.95q1.57-7.5,3.51-14.93c-.33,1.1-.68,2.2-1,3.31,1.34-6.08,2-9.41,3.18-13.93A205,205,0,0,1,878,524.76c2.65-6.65,3.58-8.25,4-8.9a9.5,9.5,0,0,0,1.53-2.86,7.85,7.85,0,0,0,.77-1.59c.54-1.2,1.42-3.17,2.79-6.25a212.35,212.35,0,0,1,16.31-28.71q-4,5.22-7.77,10.73A167.79,167.79,0,0,1,905.89,471c1.18-1.64,1.8-2.53,1.49-2.29a48,48,0,0,0-4,4.6,203.2,203.2,0,0,1,19.24-21.67,130,130,0,0,1,15.93-13,108.08,108.08,0,0,1,19.31-10.54,102.62,102.62,0,0,1,20.64-6.26,110.43,110.43,0,0,1,19.2-2c5.84-.12,11,.4,15.11.66l1.49.1c.48.05.94.13,1.38.19l2.44.35,3.51.54a123.25,123.25,0,0,1,30.19,7.46,117.72,117.72,0,0,1,29.79,17.38c-2.44-1.93-4.28-3.64-3.33-3.26a31.41,31.41,0,0,1,3.79,2.42c1,.81,2.27,1.85,3.78,3.12l2.46,2.09c.86.78,1.74,1.69,2.72,2.64-3.63-2,3.81,4.69,11.68,15.14.49.65,1,1.28,1.5,2l1.44,2.09,3,4.29,2.73,4.48,1.35,2.23c.42.75.81,1.51,1.22,2.26l2.31,4.39c.74,1.43,1.34,2.87,2,4.21s1.16,2.64,1.68,3.83.88,2.37,1.23,3.4c-2.83-7.3,4,6.51,8.28,20.21.53,1.71,1,3.4,1.56,5s.9,3.22,1.32,4.69l1.13,4.06.8,3.14c.91,3.44,1.17,3.63.15-2.48,2,8.89,1.67,9.22,1.43,9s-.67-1,.35,5.83a212,212,0,0,1,3.53,33.66,170.4,170.4,0,0,1-2.85,36.18l-.42,2.3c-.15.76-.34,1.52-.51,2.29-.35,1.52-.67,3.06-1.05,4.59s-.81,3-1.22,4.57-.91,3-1.36,4.56a153.06,153.06,0,0,1-6.84,18,158.66,158.66,0,0,1-9.15,17.21,149,149,0,0,1-11.52,16c-.34.81,5.72-5.72-1.34,3.21a127.26,127.26,0,0,1-21.5,17.69c-2.08,1.53-3.62,2.63-4.93,3.69s-2.53,1.88-4,2.89a59.4,59.4,0,0,1-5.6,3.32c-1.24.61-2.68,1.25-4.34,2s-3.63,1.4-5.86,2.23c2.56-.82,6.42-2.06,0,.7a118.56,118.56,0,0,1-18.74,5.22c-1.6.27-3.19.63-4.81.83l-4.84.63-4.88.39-1.22.09-1.21,0-2.42,0A66.65,66.65,0,0,1,1000,731a61.51,61.51,0,0,1-17.38-8.25c-10.73-7.28-19.23-17.71-25.78-29.16a150.24,150.24,0,0,1-14.66-37c-.81-3.24-1.54-6.5-2.14-9.76-.29-1.64-.56-3.28-.76-4.9s-.35-3.3-.51-4.95a165.08,165.08,0,0,1-.3-20,142.06,142.06,0,0,1,7.15-39.2c4.31-12.48,11-24.27,20.54-33a57.28,57.28,0,0,1,16.08-10.39,64.34,64.34,0,0,1,18.51-4.73c-1.74.07-3.08.38-4.13.5s-1.78.24-2.24.28c-.92.1-.75,0,.18-.2s2.62-.57,4.73-1l3.5-.4,1.9-.22c.65-.07,1.32-.06,2-.1-1.75,0-2.6.08-2.94,0s-.15-.14.21-.28c.71-.31,2.15-.57,1.45-.72l5.49-.07c.91,0,1.79.07,2.69.11s1.77.16,2.64.31a27.92,27.92,0,0,1,9.8,3.25,22,22,0,0,1,7.31,6.81,29.45,29.45,0,0,1,4,9.39,33.47,33.47,0,0,1,1.88,10.26,70.32,70.32,0,0,1-1.28,16.07,99.21,99.21,0,0,1-4.16,15c-1.51,4.16-2.87,7.14-3.19,8.26a83,83,0,0,0,5.06-12.92c-1.16,4.48-1.23,5.23-.39,3.9a51.23,51.23,0,0,0,3.71-8.91,98.62,98.62,0,0,0,3.19-12.39c.7-3.55,1-5.93,1.39-5.21a86,86,0,0,0-.66-8.77,48.44,48.44,0,0,0-2.23-9.75,31.81,31.81,0,0,0-2.2-5,26.89,26.89,0,0,0-13-12A35.77,35.77,0,0,0,1013,523.1l-1.62-.07c-.54,0-1.06,0-1.6,0l-3.2.07a65,65,0,0,0-6.48.52l-1.63.18-1.62.31-3.25.63c-1.09.18-2.15.55-3.23.84l-3.21.94L984,527.78a29,29,0,0,0-3.09,1.33,50.4,50.4,0,0,0-5.88,3.28c-3.52,1.84-2.12.9-.3-.27.92-.58,1.91-1.26,2.48-1.6s.65-.46-.36-.08A89.87,89.87,0,0,0,963.94,540a81.56,81.56,0,0,0-15.16,19l1-2a100.89,100.89,0,0,0-8.35,18,133.06,133.06,0,0,0-4.7,17,168.93,168.93,0,0,0-3.43,31.67c-.07,5.24.07,10.54.54,16a116.49,116.49,0,0,0,2.87,17.08,164.41,164.41,0,0,0,5.47,18.42,142.51,142.51,0,0,0,9,20.21c-.58-1.48-1.06-3-1.58-4.5,1.51,3.06,2.87,5.44,4,7.45s2.1,3.56,3,4.93L959,707l2.56,3.58c5.6,5.65-1.13-1.43-6.21-9.79-5.26-8.26-9.08-17.41-5.56-11.22a90.83,90.83,0,0,0,11.51,19.68,87,87,0,0,0,11,12,72.19,72.19,0,0,0,14.52,10,68.13,68.13,0,0,0,8.1,3.55l4.14,1.33c1.37.42,2.77.67,4.13,1,.68.15,1.35.32,2,.46l2,.3c1.34.18,2.66.42,4,.55l3.83.26c.62,0,1.24.09,1.85.11h1.8c2.36,0,4.61,0,6.63-.18s3.91-.2,5.58-.41,3.15-.3,4.4-.39,2.28-.25,3.06-.3c1.3-.25,2.42-.45,3.36-.66l2.36-.6c1.28-.33,2-.54,2.35-.66.7-.25-.08-.17-.86-.08s-1.55.16-.86-.09c.35-.12,1.07-.33,2.34-.66l5.56-1.69c1.81-.44,3.61-1,5.42-1.44,1.61-.78,3.16-1.69,4.72-2.53,6.33-2.72,11-5.06,14.09-6.73,1.56-.84,2.79-1.42,3.64-1.86a6,6,0,0,1,1.5-.64c-2.79,1.89-8.11,5.11-11.31,6.8,2-1,4.27-2.08,6.52-3.46,1.13-.68,2.31-1.35,3.49-2.08l3.52-2.34a117.47,117.47,0,0,0,13.49-10.82l1.54-1.41,1.44-1.45,2.77-2.78c1.7-1.88,3.33-3.59,4.69-5.2l3.51-4.21c.93-1.2,1.66-2.13,2.15-2.73a129.25,129.25,0,0,1-13.69,15,143.13,143.13,0,0,0,26.68-36.1,163.48,163.48,0,0,0,15.49-44.3,174.85,174.85,0,0,0,2.89-23.34,210.67,210.67,0,0,0,0-23c-.41-7.56-1.29-15-2.36-22.13q-.45-2.69-.89-5.34c-.3-1.77-.69-3.51-1-5.25-.65-3.47-1.54-6.85-2.33-10.19l.59,4.14c-1.16-5.1-2.41-9.37-3.43-13.1l-1.58-5.15c-.25-.8-.49-1.57-.71-2.31s-.5-1.45-.74-2.13c-1.82-5.53-3.39-9.56-5-13.72-.87-2.05-1.74-4.13-2.71-6.43s-2.25-4.73-3.63-7.59a154.71,154.71,0,0,0-13.85-22c.38.41.7.87,1,1.31a160,160,0,0,0-23.85-24.5c2.28,1.82,2.41,1.8,1.51.9-.46-.45-1.16-1.13-2-1.89l-2.88-2.32c-2-1.57-3.82-3.16-4.5-3.63s.14-.3,3.28,2c-2.29-1.75-4.57-3-6.58-4.3l-2.87-1.77c-.91-.55-1.84-1-2.68-1.43-3.4-1.75-6-3.19-8.25-4l-5.15-2.14-.92-.38-.85-.27-1.45-.44-5.8-1.68c-.33-.1-.69-.21-1.07-.31l-1.25-.28-3-.68c-2.29-.51-5.12-1.27-8.84-1.78-2.22-.63-4.44-1.33-6.69-1.9l-6.4-.51c-1.87-.16-3.65-.34-5.83-.36s-4.74-.17-8.2-.35c-1.73,0-3.68,0-5.92,0l-3.57.15c-.64,0-1.29,0-2,.08l-2.08.18c2.34-.28,3.87-.34,4.8-.44s1.24-.15,1.16-.2a28,28,0,0,0-3.64-.22,13.18,13.18,0,0,1-3.22-.12c.11-.11,2-.54,7.29-.81a103.6,103.6,0,0,0-17.1,1.29c-2.67.38-5.2,1-7.67,1.5s-4.81,1.21-7.05,2a101.82,101.82,0,0,0-22.78,10.48A138.38,138.38,0,0,0,926.3,442c-4.68,3.91-8.84,7.73-13,11.52a28.24,28.24,0,0,0-2.73,3.77c-.15.39.31-.05,1.28-1,1.9-1.9,5.69-5.95,10-9.9,8.54-8,19.56-15,14.43-11.4,4.51-2.64.68-.06-5.33,4.83A166.66,166.66,0,0,0,912.22,458c-5,5.79-9.37,10.66-15,18.28s-12.39,18.12-20,36c1.52-3.53,1.51-3.83,3.11-7.32a183.1,183.1,0,0,0-8.25,20.22c-2.48,7.08-4.9,14.6-7.62,23-.92,4.91-2.36,10.47-3.47,15.2s-1.88,8.65-1.58,10.17a352.39,352.39,0,0,1,8.61-34.26c-2.85,9.61-5,19.1-7.12,30.19s-4.31,23.82-6.49,40.14c0-2.58.91-12.35,1.86-19-1.88,9.47-2.41,18.41-3.63,28.33-.47-1.46.33-12.2,2.3-25.14,1-6.46,2.22-13.47,3.56-20.18s2.75-13.08,3.9-18.35a211.23,211.23,0,0,0-5,22.34c-1.32,7.4-2.08,12.22-1.78,6.78-.56,7.8-2,17.17-3.26,27.95A208.89,208.89,0,0,0,851,648.34l-.73-1.72c.09,4.15.81,12.79,1.57,20.39-.76-4.56-1.43-9.16-1.9-13.79.81,10.67,1.84,20.88,3.39,30.94a186.54,186.54,0,0,0,6.87,29.67c-1.52-5.14-2.67-9.15-3.38-12.3-.37-1.57-.69-2.91-1-4s-.42-2.11-.57-2.89c-.59-3.14-.56-3.58-.35-3.28s.6,1.37.73,1.23.07-.42,0-1.32-.36-2.34-.7-4.57c2.68,12.88,5.16,21,6.79,27,.9,3,1.56,5.44,2.2,7.64s1.24,4.16,1.83,6.18,1.3,4,2.09,6.42c.42,1.18.82,2.46,1.37,3.82s1.16,2.85,1.82,4.48l1.07,2.56c.41.88.85,1.8,1.3,2.77.94,1.92,1.88,4.07,3.11,6.35.62,1.14,1.27,2.33,1.94,3.58s1.36,2.57,2.2,3.89,1.66,2.72,2.54,4.18c.45.73.89,1.48,1.38,2.22s1,1.5,1.54,2.27c-.56-.84-1.28-1.84-2-3l-2.23-3.74c-.75-1.3-1.57-2.61-2.24-3.92s-1.32-2.55-1.89-3.66a34.62,34.62,0,0,1-2-4.32c-.1-.43.36.42,2,3.12,1.34,2.48,2.7,5.21,4.31,7.86l2.34,4c.78,1.35,1.66,2.61,2.46,3.89l2.36,3.7c.79,1.18,1.59,2.28,2.32,3.34,1.48,2.09,2.7,4,3.79,5.36l4.16,5c1.24,1.37,2.32,2.48,3.21,3.42,1.79,1.86,2.82,3,3.44,3.48s.64.49.35.14-.92-1-1.61-1.86c-2.82-3.35-7.5-8.77-1.63-2.77,1.07,1.3,2.06,2.51,3.06,3.61s2,2,3,3,1.94,1.84,2.92,2.71l3.11,2.45,3.28,2.51,3.77,2.53,2,1.39c.71.49,1.44,1,2.24,1.44l5.13,3.1-.27.69a102.9,102.9,0,0,0,12,6.33l4.2,1.85,3.24,1.1c3.69,1.2,5,1.54,6.24,1.64a38.21,38.21,0,0,1,5.5,1c1.58.45,3.76.8,6.75,1.38l2.4.48a26.09,26.09,0,0,0,2.76.45l6.68.85c-2.83-.18-5.69-.28-8.54-.52l-8.52-1.16,5.22,1,2.61.47c.43.08.86.17,1.3.23l1.32.14,5.27.54c.87.08,1.75.19,2.63.25l2.64.07a41.33,41.33,0,0,1-4.42.54,39.57,39.57,0,0,0,4.15.17l3.83.06c1.23,0,2.41.07,3.54,0l3.3-.18,6.07-.29,5.65-.62c1.85-.22,3.72-.35,5.61-.64l5.9-1,3.18-.51c1.1-.19,2.21-.47,3.38-.71,2.33-.51,4.84-1,7.57-1.66-1.3.2-1.79.14-1.5-.07a5.28,5.28,0,0,1,1-.47c.53-.22,1.25-.5,2.16-.83,1.81-.67,4.38-1.51,7.66-2.56l5.39-2c2-.72,4.15-1.43,6.41-2.41,6.3-2.33,4.63-1.47,4.6-1.34a10.87,10.87,0,0,0,2.42-.87c1-.43,2.38-1.1,4.31-2l3.32-1.57,2-1,2.19-1.18a91.25,91.25,0,0,1-23.16,10.55c-1.1.63-5.76,2.48-6.91,3.12l5.51-1.75c1.92-.64,3.94-1.24,5.92-2.08l6-2.43,1.52-.62,1.49-.7,2.94-1.39c1.94-1,3.89-1.8,5.69-2.77l5.18-2.82c3.31-1.73,6.06-3.56,8.25-4.85l-5.23,3.09c-1.74.92-3.33,1.72-4.41,2.24a201.72,201.72,0,0,0,33.07-23.58c5.08-3.88,1.34-.47-2.4,2.91l4.43-3.81,2.13-1.86,2.08-2,4.66-4.46c1.7-1.64,3.47-3.58,5.6-5.72a38.83,38.83,0,0,1-2.57,3.8c-.37.47-.81,1-1.37,1.66s-1.28,1.34-2.12,2.2l-3,3c-1.18,1.14-2.51,2.46-4.17,3.84a218.69,218.69,0,0,0,26.61-28.26c.46-.46,1.52-1.63,2.79-3.06s2.63-3.23,3.92-4.78,2.39-2.95,3-3.67.76-.81.06.25a202.16,202.16,0,0,0,19.11-32.91A310.21,310.21,0,0,0,1183,671.22c.15-.73.41-1.81.82-3.44s.94-3.83,1.6-6.78c.8-3.24,1.66-6.43,2.26-9.64.34-1.6.67-3.19,1-4.78s.67-3.18.91-4.78c.51-3.2,1.06-6.39,1.55-9.6s.76-6.48,1.15-9.77a224.81,224.81,0,0,0,.07-42.86c0-3,0-6-.19-9l-.36-8.93c-1.6-12.23-1.2-6.18-1.08-2.18.07,2,.06,3.49-.28,1.94-.18-.77-.44-2.31-.82-4.91s-.87-6.3-1.68-11.35c-1.06-7.17-1.84-11.4-2.17-13.92s-.34-3.29-.22-3.49c.22-.4,1,1.5.18-3.53l-1.34-5.76c-.45-2.08-1-4.28-1.62-6.61l-1.86-7.36c-.7-2.55-1.43-5.22-2.19-8-3.07-11-6.79-23.42-11-36.12,1.57,4.14,2.92,7.86,4.15,11.53S1174.11,479.27,1175.34,483.22Zm-229-152.74,5.21-1.37c2-.51,4.11-.92,6.21-1.37s4.17-.69,6-1a37.43,37.43,0,0,1,4.48-.33C961.56,328,956.31,328.28,946.35,330.48ZM813.58,725.92a96.63,96.63,0,0,1-8.05-17C807.72,714,810.33,719.73,813.58,725.92Zm88.63,17.56c.13.22.23.37.34.54,3.25,5.86,4.56,7.61,4.16,7.06S904.42,747.56,902.21,743.48Zm-11-25.38c-1-2.59-1-2.39-.75-1.24.81,1.76,2.77,7.65,5.61,14.13-.33-.93-.8-2.23-1.58-4.26-.4-1-.87-2.19-1.4-3.62-.28-.71-.57-1.48-.89-2.31S891.61,719.07,891.26,718.1Zm-6.78-207.93-2.24,4.71c2.2-5.46,3.13-7.37,3.26-7.57A24.17,24.17,0,0,1,884.48,510.17Z"/><path class="cls-4" d="M794,677.38a8.87,8.87,0,0,1-.22-2.54C793.12,672.61,792.92,672.6,794,677.38Z"/><path class="cls-4" d="M1183.24,670.32l-.27.9a5.79,5.79,0,0,0-.14.93Z"/><path class="cls-4" d="M1163,607.25c.55-5.48.85-8.53,1.06-10.57C1163.85,596.38,1163.74,598.87,1163,607.25Z"/><path class="cls-4" d="M888.48,574.49c-1.43,5.65-2.78,11.4-3.85,17.17a151.81,151.81,0,0,1,3.82-15.38C888.19,576.62,887.12,579.8,888.48,574.49Z"/><path class="cls-4" d="M973.81,454.56c1.13-.58,2.41-1,3.65-1.49s2.52-.88,3.7-1.29l-.76-.12c-.65.21-1.29.39-1.9.61l-1.76.68c-1.13.46-2.22.82-3.14,1.28-1.86.89-3.33,1.55-4.12,2s-1,.62-.35.34S971.25,455.67,973.81,454.56Z"/><path class="cls-4" d="M895.28,559.6c1-1.12,4-11.63,8.58-23l-.82,2C903.6,535,898.89,547.15,895.28,559.6Z"/><path class="cls-4" d="M904.9,534c1.46-3.48,3-7,4.58-10.33.15-.72-.35.31-1.23,2.29S906.19,530.88,904.9,534Z"/><path class="cls-4" d="M882.74,684.28c-.71-5.8-1.27-3.53-1.47-6.85-.78-3.21.57,6.49,2.05,12.91a32.39,32.39,0,0,0,1.42,5.27c0-.17-.15-1-.48-2.84S883.39,688.23,882.74,684.28Z"/><path class="cls-4" d="M900.31,550.88c-.72,1.29-1.45,2.57-2.12,3.88-.51,2.23-1.06,4.44-1.52,6.67.55-1.78,1.19-3.52,1.78-5.29l.9-2.64Z"/><path class="cls-4" d="M883,644.8q.15-9.72,1-19.4a27.45,27.45,0,0,1,.18-5.21c-.57,6-1,12.23-1.14,16.95A59.78,59.78,0,0,0,883,644.8Z"/><path class="cls-4" d="M884.17,620.19c.58-6.22,1.36-12.1,1.76-15.55C885.42,608,884.52,615.19,884.17,620.19Z"/><path class="cls-4" d="M892.8,576.3l-1.59,5.51q-1.65,6.65-2.94,13.37C889.52,588.83,891.06,582.54,892.8,576.3Z"/><path class="cls-4" d="M993.38,796.19a161.74,161.74,0,0,0,21.23-.39c2.13-.47-3.63,0-11.52.14-1.27.09-2.71,0-4.11.08s-2.77,0-3.86,0C992.92,796,991.76,796,993.38,796.19Z"/><path class="cls-4" d="M934.6,773.82c4.47,3.45,4.76,3.72,7.32,5.66l1-.48c-1.45-.76-2.82-1.65-4.24-2.48S936,774.74,934.6,773.82Z"/><path class="cls-4" d="M991.26,793.79c.52,0,2.68,0,5.21.08s5.43,0,7.44-.15,3.11-.18,2.07-.21c-.52,0-1.59,0-3.34,0-.88,0-1.93,0-3.18,0s-2.68,0-4.33-.14c-.53,0-2.23,0-4.19-.06s-4.16-.26-5.7-.41-2.42-.22-1.73-.07c.35.08,1.09.21,2.33.4Z"/><path class="cls-4" d="M1165.88,574.85c.15,1.78.27,3.57.36,5.36l1.48-.85C1167.14,577.84,1166.5,576.33,1165.88,574.85Z"/><path class="cls-4" d="M1024.63,360.11c1.5.3,2.84.53,4,.8l3.11.82c1.81.46,3.14.78,4.13,1a19.06,19.06,0,0,0,3.25.53,12.26,12.26,0,0,1,2.76.63c.84.25,2,.62,3.53,1.15l2.7.94c.51.19,1.06.36,1.63.59l1.79.8c1.36.47,1,.25-.2-.32a24.61,24.61,0,0,0-2.37-1l-3.08-1.1c-4.25-1.54-8.51-3-5.65-2.24-7.22-1.77-12.71-3.14-15.67-3.43S1021.38,359,1024.63,360.11Z"/><path class="cls-4" d="M1040.25,362.69l7.26,2.19C1043.4,363.6,1041.45,363,1040.25,362.69Z"/><path class="cls-4" d="M1036.18,575.62a87.52,87.52,0,0,1-4.87,14.66A85,85,0,0,0,1035,581C1035.47,579.22,1035.86,577.43,1036.18,575.62Z"/><path class="cls-4" d="M1025.93,603.32a24.68,24.68,0,0,1-2.93,2c-1.63,2.24-3.8,4-5.25,4a3.48,3.48,0,0,0,1.75-.29,9.38,9.38,0,0,0,2.46-1.58A33.51,33.51,0,0,0,1025.93,603.32Z"/><path class="cls-4" d="M903.4,346.92l-1,.86c1.17-.57,2.58-1.36,4.53-2.52l3.45-1.91,2.11-1.16,2.45-1.25c-1,.46-2,.9-3,1.38l-2.9,1.48C907.18,344.77,905.3,345.85,903.4,346.92Z"/><polygon class="cls-4" points="1112.37 371.6 1110.99 370.25 1109.53 368.98 1110.75 370.32 1111.9 371.73 1114.18 374.55 1112.37 371.6"/><path class="cls-4" d="M1189.39,538.22c-.61-3.74-1.31-7.81-2.06-11.87s-1.62-8.1-2.36-11.84c.86,4,1.49,7.7,2,10.84s.83,5.83,1.14,7.92C1188.72,537.44,1189,539.31,1189.39,538.22Z"/></svg>